<svg width="24" height="24" viewBox="0 0 24 24" fill="none" xmlns="http://www.w3.org/2000/svg">
<path fill-rule="evenodd" clip-rule="evenodd" d="M11.7138 1.03051C11.9038 1.02108 12.0941 1.02108 12.2841 1.03051C13.0174 1.06692 13.6926 1.28001 14.4452 1.62929C15.178 1.96931 16.0294 2.46087 17.1065 3.08276L17.1676 3.11802C18.2447 3.73992 19.0962 4.2315 19.757 4.69604C20.4358 5.17323 20.958 5.65139 21.3562 6.26829C21.4593 6.42809 21.5545 6.59292 21.6413 6.76215C21.9764 7.41546 22.1295 8.10672 22.2033 8.93318C22.2752 9.73774 22.2752 10.7209 22.2752 11.9647V12.0351C22.2752 13.2789 22.2752 14.2621 22.2033 15.0667C22.1295 15.8931 21.9764 16.5844 21.6413 17.2377C21.5545 17.4069 21.4593 17.5718 21.3562 17.7316C20.958 18.3485 20.4358 18.8266 19.757 19.3038C19.0962 19.7684 18.2447 20.26 17.1676 20.8819L17.1066 20.9171C16.0294 21.539 15.178 22.0306 14.4452 22.3706C13.6926 22.7199 13.0174 22.9329 12.2841 22.9694C12.0941 22.9788 11.9038 22.9788 11.7138 22.9694C10.9804 22.9329 10.3053 22.7199 9.55263 22.3706C8.81991 22.0306 7.9685 21.539 6.89135 20.9171L6.83024 20.8818C5.75316 20.26 4.90164 19.7683 4.24085 19.3038C3.56204 18.8266 3.03991 18.3485 2.6417 17.7316C2.53855 17.5718 2.44339 17.407 2.35657 17.2377C2.02143 16.5844 1.86838 15.8932 1.79454 15.0667C1.72265 14.2621 1.72265 13.279 1.72266 12.0352V11.9647C1.72265 10.7209 1.72264 9.73775 1.79454 8.93318C1.86838 8.10672 2.02142 7.41547 2.35657 6.76215C2.44339 6.59292 2.53855 6.4281 2.6417 6.2683C3.03991 5.65139 3.56204 5.17323 4.24085 4.69604C4.90168 4.2315 5.75312 3.73993 6.83029 3.11803L6.89128 3.08282C7.96845 2.4609 8.8199 1.96931 9.55262 1.62929C10.3053 1.28001 10.9804 1.06692 11.7138 1.03051ZM17.6723 9.47309C17.8547 9.10121 17.7011 8.65186 17.3292 8.46944C16.9573 8.28702 16.508 8.44061 16.3256 8.81249L14.8652 11.7895C14.4126 12.7123 13.0822 12.6672 12.6931 11.716C11.8139 9.56691 8.80845 9.46511 7.78588 11.5497L6.32555 14.5268C6.14313 14.8987 6.29672 15.348 6.6686 15.5304C7.04048 15.7129 7.48983 15.5593 7.67225 15.1874L9.13259 12.2103C9.58523 11.2876 10.9156 11.3326 11.3047 12.2839C12.1839 14.433 15.1893 14.5348 16.2119 12.4501L17.6723 9.47309Z" fill="#2D264B"/>
</svg>
