<svg width="24" height="24" viewBox="0 0 24 24" fill="none" xmlns="http://www.w3.org/2000/svg">
<path d="M4.00242 5.4717L4.00249 5.45805C4.00075 5.73061 3.77664 5.97101 3.50044 5.99578C3.22316 6.02065 2.99838 5.81879 2.99838 5.54492L2.99839 5.54391C2.99984 5.04362 3.24958 4.53034 3.66908 4.25066C3.91345 4.08775 4.20859 4.00196 4.54584 4.00195H15.1815C15.9223 4.00195 16.5316 4.4029 16.823 4.99783C17.5192 4.99908 18.0219 5.01687 18.4527 5.21939C18.593 5.28534 18.7253 5.36518 18.8478 5.45779C19.2606 5.76998 19.4984 6.25154 19.8414 6.94593C20.0976 7.46483 20.3542 7.9836 20.6108 8.50232H18.8364C18.2841 8.50232 17.7921 8.94784 17.7375 9.49741L17.4405 12.4827C17.3585 13.307 17.9637 13.9753 18.7921 13.9753H21.772L21.6372 15.4544C21.4941 17.0236 20.1621 18.3102 18.6069 18.4325C18.668 17.4985 17.9715 16.7511 17.0251 16.7511C16.0756 16.7511 15.2279 17.5036 15.1077 18.442H9.90318C9.96968 17.5036 9.27162 16.7511 8.32208 16.7511C7.37254 16.7511 6.52479 17.5036 6.40462 18.442H5.36477C3.43177 18.442 2.00707 16.8815 2.18259 14.9565L2.27587 13.9335C2.29508 13.7224 2.31375 13.5172 2.35203 13.3479C2.39519 13.1571 2.47781 12.9394 2.67591 12.7585C2.87401 12.5777 3.09834 12.5152 3.29228 12.4895C3.46431 12.4668 3.67035 12.4668 3.88237 12.4668L14.4096 12.4668C14.9619 12.4668 15.4503 12.021 15.5004 11.471L15.9999 5.99369C16.0507 5.43601 15.641 4.99782 15.0907 4.99782H4.45504C4.18566 4.99782 4.02161 5.1893 4.00319 5.44713C4.00283 5.45406 4.00261 5.46386 4.0025 5.46873L4.00242 5.4717Z" fill="white"/>
<path d="M18.106 18.442H15.608C15.7006 17.7785 16.3023 17.2486 16.9757 17.2486C17.649 17.2486 18.1453 17.7785 18.106 18.442Z" fill="white"/>
<path d="M8.2726 17.2486C8.94597 17.2486 9.44228 17.7785 9.40289 18.442H6.90491C6.99751 17.7785 7.59922 17.2486 8.2726 17.2486Z" fill="white"/>
<path d="M21.8627 12.9802L21.9078 12.4863C21.9514 12.0104 21.9816 11.6798 21.9239 11.3597C21.8662 11.0394 21.7249 10.754 21.5213 10.3427L21.1031 9.49741H18.7375L18.4405 12.4827C18.4132 12.7575 18.6149 12.9802 18.8911 12.9802H21.8627Z" fill="white"/>
<path d="M6.89878 18.4929C6.9671 17.8059 7.58214 17.249 8.27249 17.249C8.96285 17.249 9.4671 17.8059 9.39878 18.4929C9.33045 19.1799 8.71542 19.7367 8.02506 19.7367C7.33471 19.7367 6.83045 19.1799 6.89878 18.4929Z" fill="white"/>
<path d="M15.6019 18.4929C15.6702 17.8059 16.2853 17.249 16.9756 17.249C17.666 17.249 18.1702 17.8059 18.1019 18.4929C18.0336 19.1799 17.4185 19.7367 16.7282 19.7367C16.0378 19.7367 15.5336 19.1799 15.6019 18.4929Z" fill="white"/>
<path fill-rule="evenodd" clip-rule="evenodd" d="M2 11C2 10.7239 2.22386 10.5 2.5 10.5H4.5C4.77614 10.5 5 10.7239 5 11C5 11.2761 4.77614 11.5 4.5 11.5H2.5C2.22386 11.5 2 11.2761 2 11Z" fill="white"/>
<path fill-rule="evenodd" clip-rule="evenodd" d="M2 9C2 8.72386 2.22386 8.5 2.5 8.5H5.5C5.77614 8.5 6 8.72386 6 9C6 9.27614 5.77614 9.5 5.5 9.5H2.5C2.22386 9.5 2 9.27614 2 9Z" fill="white"/>
<path fill-rule="evenodd" clip-rule="evenodd" d="M2 7C2 6.72386 2.22386 6.5 2.5 6.5H6.5C6.77614 6.5 7 6.72386 7 7C7 7.27614 6.77614 7.5 6.5 7.5H2.5C2.22386 7.5 2 7.27614 2 7Z" fill="white"/>
<path d="M10.6233 6.80738C10.5769 6.89889 10.5663 7.01489 10.5452 7.2469L10.502 7.72093C10.5009 7.7322 10.5004 7.73784 10.4966 7.74134C10.4927 7.74484 10.4871 7.74484 10.4758 7.74484H9.99977C9.7668 7.74484 9.65032 7.74484 9.55498 7.78274C9.42785 7.83328 9.32168 7.93021 9.25981 8.05222C9.2134 8.14372 9.20282 8.25973 9.18167 8.49174C9.16051 8.72375 9.14994 8.83975 9.17965 8.93126C9.21927 9.05326 9.30777 9.1502 9.42568 9.20074C9.51411 9.23864 9.63059 9.23864 9.86356 9.23864H10.3396C10.3509 9.23864 10.3565 9.23864 10.3597 9.24214C10.3629 9.24564 10.3624 9.25127 10.3614 9.26254L10.3182 9.73657C10.297 9.96858 10.2864 10.0846 10.3161 10.1761C10.3558 10.2981 10.4443 10.395 10.5622 10.4456C10.6506 10.4835 10.7671 10.4835 11.0001 10.4835C11.233 10.4835 11.3495 10.4835 11.4449 10.4456C11.572 10.395 11.6782 10.2981 11.74 10.1761C11.7864 10.0846 11.797 9.96858 11.8182 9.73657L11.8614 9.26254C11.8624 9.25127 11.8629 9.24564 11.8668 9.24214C11.8706 9.23864 11.8762 9.23864 11.8876 9.23864H12.3636C12.5965 9.23864 12.713 9.23864 12.8084 9.20074C12.9355 9.1502 13.0417 9.05326 13.1035 8.93126C13.1499 8.83975 13.1605 8.72375 13.1817 8.49174C13.2028 8.25973 13.2134 8.14372 13.1837 8.05222C13.1441 7.93021 13.0556 7.83328 12.9377 7.78274C12.8492 7.74484 12.7327 7.74484 12.4998 7.74484H12.0238C12.0125 7.74484 12.0068 7.74484 12.0036 7.74134C12.0004 7.73784 12.0009 7.7322 12.002 7.72093L12.0452 7.2469C12.0663 7.01489 12.0769 6.89889 12.0472 6.80738C12.0076 6.68538 11.9191 6.58844 11.8012 6.5379C11.7127 6.5 11.5963 6.5 11.3633 6.5C11.1303 6.5 11.0138 6.5 10.9185 6.5379C10.7914 6.58844 10.6852 6.68538 10.6233 6.80738Z" fill="white"/>
</svg>
