<svg width="24" height="24" viewBox="0 0 24 24" fill="none" xmlns="http://www.w3.org/2000/svg">
<path d="M11.7322 7.96244C11.8213 7.67923 12.1772 7.67923 12.2663 7.96244C12.4988 8.70167 13.1759 9.22477 13.9642 9.22477C14.0411 9.22477 14.0903 9.24756 14.127 9.27688C14.1688 9.3103 14.2086 9.3649 14.2313 9.43717C14.2772 9.58312 14.2377 9.718 14.1213 9.80537C13.4986 10.2727 13.2494 11.0877 13.4807 11.8233C13.5316 11.9852 13.474 12.114 13.3707 12.1915C13.3178 12.2312 13.2626 12.2485 13.2166 12.2499C13.1769 12.2512 13.1238 12.2419 13.0567 12.1915C12.4279 11.7196 11.5707 11.7196 10.9419 12.1915C10.8747 12.2419 10.8216 12.2512 10.7819 12.2499C10.7359 12.2485 10.6807 12.2312 10.6278 12.1915C10.5245 12.114 10.4669 11.9852 10.5178 11.8233C10.7492 11.0877 10.4999 10.2727 9.87728 9.80537C9.76088 9.718 9.72134 9.58312 9.76725 9.43717C9.78998 9.3649 9.82973 9.3103 9.87156 9.27688C9.90824 9.24756 9.95747 9.22477 10.0343 9.22477C10.8227 9.22477 11.4997 8.70167 11.7322 7.96244Z" fill="#2D264B"/>
<path fill-rule="evenodd" clip-rule="evenodd" d="M8.22253 1.53146C9.09004 1.24958 10.1313 1.24975 11.8375 1.25002H12.1612C13.8675 1.24975 14.9087 1.24958 15.7762 1.53146C17.5267 2.10024 18.8992 3.47267 19.4679 5.22319L19.4766 5.25003H19.7687C23.4743 5.25003 25.0661 9.95211 22.1226 12.203L22.1119 12.2112L19.6506 13.9576C19.5588 14.0227 19.4638 14.0832 19.3661 14.1388C19.3555 14.1667 19.3445 14.1945 19.3333 14.2224C19.0779 14.857 18.5792 15.6184 18.0995 16.1063C17.3179 16.9012 16.509 17.2538 15.2174 17.8167L15.1315 17.8541C14.5752 18.0967 14.0126 18.3167 13.4903 18.4772C13.2429 18.5532 12.9932 18.6196 12.7494 18.6678V21.25H15.9994C16.4136 21.25 16.7494 21.5858 16.7494 22C16.7494 22.4142 16.4136 22.75 15.9994 22.75H7.99937C7.58516 22.75 7.24937 22.4142 7.24937 22C7.24937 21.5858 7.58516 21.25 7.99937 21.25H11.2494V18.6678C11.0056 18.6196 10.7559 18.5532 10.5085 18.4772C9.98612 18.3167 9.42355 18.0967 8.8672 17.8541L8.78136 17.8167C7.48971 17.2538 6.68083 16.9012 5.8992 16.1063C5.41958 15.6184 4.92089 14.857 4.6654 14.2224C4.65389 14.1938 4.64267 14.1651 4.63176 14.1365C4.53606 14.0834 4.44328 14.025 4.35388 13.9615L1.88697 12.2112L1.87632 12.203C-1.0672 9.95211 0.524601 5.25003 4.23014 5.25003H4.52218L4.5308 5.22319C5.09958 3.47267 6.47201 2.10024 8.22253 1.53146ZM4.28244 6.75003H4.23014C1.96324 6.75003 0.987036 9.62126 2.77751 11.0038L4.26935 12.0623C4.24923 11.5801 4.24929 11.0411 4.24936 10.416L4.24937 8.91608C4.24934 8.03687 4.24931 7.33514 4.28244 6.75003ZM19.7294 12.0624L21.2214 11.0038C23.0118 9.62126 22.0356 6.75003 19.7687 6.75003H19.7163C19.7494 7.33508 19.7494 8.03691 19.7494 8.91599L19.7494 10.4169C19.7495 11.0416 19.7495 11.5804 19.7294 12.0624ZM13.6972 7.51236C13.1678 5.82925 10.8307 5.82925 10.3013 7.51236C10.2573 7.65248 10.141 7.72477 10.0343 7.72477C8.25881 7.72477 7.63443 9.99754 8.97689 11.0051C9.07838 11.0812 9.13214 11.2295 9.08692 11.3733C8.82857 12.1946 9.16102 12.9661 9.72744 13.3912C10.2974 13.819 11.1403 13.9181 11.8423 13.3912C11.9376 13.3197 12.061 13.3197 12.1563 13.3912C12.8582 13.9181 13.7012 13.819 14.2711 13.3912C14.8375 12.9661 15.17 12.1946 14.9116 11.3733C14.8664 11.2295 14.9202 11.0812 15.0216 11.0051C16.3641 9.99754 15.7397 7.72477 13.9642 7.72477C13.8575 7.72477 13.7413 7.65248 13.6972 7.51236Z" fill="#2D264B"/>
</svg>
