<svg width="24" height="24" viewBox="0 0 24 24" fill="none" xmlns="http://www.w3.org/2000/svg">
<path fill-rule="evenodd" clip-rule="evenodd" d="M11.8375 1.25002C10.1313 1.24975 9.09004 1.24958 8.22253 1.53146C6.47201 2.10024 5.09958 3.47267 4.5308 5.22319L4.52218 5.25003H4.23014C0.524601 5.25003 -1.0672 9.95211 1.87632 12.203L1.88697 12.2112L4.35388 13.9615C4.44328 14.025 4.53606 14.0834 4.63176 14.1365C4.64267 14.1651 4.65389 14.1938 4.6654 14.2224C4.92089 14.857 5.41958 15.6184 5.8992 16.1063C6.68083 16.9012 7.48971 17.2538 8.78136 17.8167L8.8672 17.8541C9.42355 18.0967 9.98612 18.3167 10.5085 18.4772C10.7559 18.5532 11.0056 18.6196 11.2494 18.6678V21.25H7.99937C7.58516 21.25 7.24937 21.5858 7.24937 22C7.24937 22.4142 7.58516 22.75 7.99937 22.75H15.9994C16.4136 22.75 16.7494 22.4142 16.7494 22C16.7494 21.5858 16.4136 21.25 15.9994 21.25H12.7494V18.6678C12.9932 18.6196 13.2429 18.5532 13.4903 18.4772C14.0126 18.3167 14.5752 18.0967 15.1315 17.8541L15.2174 17.8167C16.509 17.2538 17.3179 16.9012 18.0995 16.1063C18.5792 15.6184 19.0779 14.857 19.3333 14.2224C19.3445 14.1945 19.3555 14.1667 19.3661 14.1388C19.4638 14.0832 19.5588 14.0227 19.6506 13.9576L22.1119 12.2112L22.1226 12.203C25.0661 9.95211 23.4743 5.25003 19.7687 5.25003H19.4766L19.4679 5.22319C18.8992 3.47267 17.5267 2.10024 15.7762 1.53146C14.9087 1.24958 13.8675 1.24975 12.1612 1.25002H11.8375ZM4.23014 6.75003H4.28244C4.24931 7.33514 4.24934 8.03687 4.24937 8.91608L4.24936 10.416C4.24929 11.0411 4.24923 11.5801 4.26935 12.0623L2.77751 11.0038C0.987036 9.62126 1.96324 6.75003 4.23014 6.75003ZM21.2214 11.0038L19.7294 12.0624C19.7495 11.5804 19.7495 11.0416 19.7494 10.4169L19.7494 8.91603C19.7494 8.03693 19.7494 7.33509 19.7163 6.75003H19.7687C22.0356 6.75003 23.0118 9.62126 21.2214 11.0038Z" fill="#2D264B"/>
</svg>
