<svg width="24" height="24" viewBox="0 0 24 24" fill="none" xmlns="http://www.w3.org/2000/svg">
<path fill-rule="evenodd" clip-rule="evenodd" d="M12.8578 6C14.2175 5.99999 15.2528 5.99998 16.0788 6.08679C16.7313 6.15536 17.2931 6.28112 17.8208 6.52306C18.8263 6.98397 19.6774 7.72509 20.2723 8.65756C20.6323 9.22195 20.846 9.8533 21.0138 10.6235C21.1782 11.378 21.3088 12.3187 21.4751 13.5154L21.4843 13.5818C21.6982 15.1219 21.8654 16.3259 21.9162 17.2957C21.9678 18.2803 21.9054 19.1008 21.6092 19.8541C21.1251 21.0853 20.2312 22.112 19.0783 22.7609C18.3729 23.1579 17.5687 23.3325 16.5864 23.4169C15.6189 23.5 14.4034 23.5 12.8485 23.5H11.1524C9.59752 23.5 8.38202 23.5 7.41449 23.4169C6.43214 23.3325 5.628 23.1579 4.92261 22.7609C3.7697 22.112 2.87581 21.0853 2.39169 19.8541C2.09549 19.1008 2.03311 18.2803 2.08467 17.2957C2.13546 16.3259 2.30268 15.122 2.51659 13.5819L2.52579 13.5156C2.69201 12.3188 2.82267 11.378 2.9871 10.6235C3.15492 9.8533 3.36856 9.22195 3.7286 8.65756C4.32345 7.72509 5.17462 6.98397 6.18005 6.52306C6.70782 6.28112 7.26962 6.15536 7.92205 6.08679C8.74802 5.99998 9.78336 5.99999 11.143 6H12.8578ZM7.25049 5.75C7.25049 3.12665 9.37713 1 12.0005 1C14.6238 1 16.7505 3.12665 16.7505 5.75V10.75C16.7505 11.1642 16.4147 11.5 16.0005 11.5C15.5863 11.5 15.2505 11.1642 15.2505 10.75V5.75C15.2505 3.95507 13.7954 2.5 12.0005 2.5C10.2056 2.5 8.75049 3.95507 8.75049 5.75V10.75C8.75049 11.1642 8.4147 11.5 8.00049 11.5C7.58627 11.5 7.25049 11.1642 7.25049 10.75V5.75Z" fill="#2D264B"/>
</svg>
