<svg width="24" height="24" viewBox="0 0 24 24" fill="none" xmlns="http://www.w3.org/2000/svg">
<path fill-rule="evenodd" clip-rule="evenodd" d="M12.0002 0.25C9.07877 0.25 6.66619 2.42873 6.29869 5.25L5.63616 5.25C4.64048 5.24997 3.81478 5.24994 3.16678 5.34049C2.48554 5.43567 1.8734 5.64585 1.40787 6.16597C0.942341 6.68609 0.801051 7.31769 0.781677 8.00527C0.763249 8.65932 0.854456 9.47995 0.964441 10.4695L1.27233 13.2405C1.50236 15.3109 1.68302 16.937 1.98987 18.2008C2.30439 19.4962 2.77218 20.5072 3.64064 21.2845C4.50992 22.0625 5.5714 22.4154 6.90078 22.5847C8.19871 22.75 9.84685 22.75 11.9467 22.75H12.0537C14.1535 22.75 15.8017 22.75 17.0997 22.5847C18.429 22.4154 19.4905 22.0625 20.3598 21.2845C21.2283 20.5072 21.696 19.4962 22.0106 18.2008C22.3174 16.937 22.4981 15.311 22.7281 13.2407L23.036 10.4695C23.146 9.47996 23.2372 8.65931 23.2188 8.00527C23.1994 7.31769 23.0581 6.68609 22.5926 6.16597C22.127 5.64585 21.5149 5.43567 20.8337 5.34049C20.1857 5.24994 19.36 5.24997 18.3643 5.25L17.7017 5.25C17.3342 2.42873 14.9217 0.25 12.0002 0.25ZM12.0002 1.75C14.0915 1.75 15.83 3.26049 16.1843 5.25H7.81619C8.17042 3.26049 9.90892 1.75 12.0002 1.75ZM6.00024 9.25C5.58603 9.25 5.25024 9.58579 5.25024 10C5.25024 10.4142 5.58603 10.75 6.00024 10.75H18.0002C18.4145 10.75 18.7502 10.4142 18.7502 10C18.7502 9.58579 18.4145 9.25 18.0002 9.25H6.00024Z" fill="#2D264B"/>
</svg>
