<svg width="24" height="24" viewBox="0 0 24 24" fill="none" xmlns="http://www.w3.org/2000/svg">
<path fill-rule="evenodd" clip-rule="evenodd" d="M6.25625 5.73903C6.39269 2.68452 8.91226 0.25 12.0004 0.25C15.0886 0.25 17.6082 2.68452 17.7446 5.73903C17.7701 5.75012 17.7955 5.76146 17.8208 5.77306C18.7057 6.17871 19.4711 6.80141 20.0474 7.58057L19.2836 8.34266L18.4198 9.20647C16.7381 10.8881 15.5291 12.0949 14.4863 12.8905C13.4608 13.673 12.6847 13.9868 11.879 13.9868C11.0734 13.9868 10.2973 13.673 9.2718 12.8905C8.22899 12.0949 7.01997 10.8881 5.33831 9.20647L3.85281 7.72097C4.43932 6.8761 5.24263 6.20279 6.18005 5.77306C6.20536 5.76146 6.23075 5.75012 6.25625 5.73903ZM7.79966 5.35109C8.65265 5.24978 9.69337 5.24987 11.0466 5.24999H12.9542C14.3075 5.24987 15.3482 5.24978 16.2012 5.35109C15.8888 3.31188 14.127 1.75 12.0004 1.75C9.87386 1.75 8.11208 3.31188 7.79966 5.35109Z" fill="#2D264B"/>
<path d="M20.772 8.97674L20.3357 9.41183L19.4399 10.3077C17.8077 11.9399 16.5284 13.2192 15.3962 14.0831C14.2372 14.9673 13.1445 15.4868 11.879 15.4868C10.6136 15.4868 9.52085 14.9673 8.36192 14.0831C7.22967 13.2192 5.95049 11.94 4.31822 10.3077L3.17034 9.15982C2.90447 10.0379 2.74889 11.1586 2.53783 12.6789L2.51659 12.8319C2.30268 14.372 2.13546 15.5759 2.08467 16.5457C2.03311 17.5303 2.09549 18.3508 2.39169 19.1041C2.87581 20.3353 3.7697 21.362 4.92261 22.0109C5.628 22.4079 6.43214 22.5825 7.41449 22.6669C8.38202 22.75 9.59752 22.75 11.1524 22.75H12.8485C14.4034 22.75 15.6189 22.75 16.5864 22.6669C17.5687 22.5825 18.3729 22.4079 19.0783 22.0109C20.2312 21.362 21.1251 20.3353 21.6092 19.1041C21.9054 18.3508 21.9678 17.5303 21.9162 16.5457C21.8654 15.5759 21.6982 14.3719 21.4843 12.8318L21.4599 12.6563C21.2365 11.0466 21.075 9.88337 20.772 8.97674Z" fill="#2D264B"/>
</svg>
