<svg width="24" height="24" viewBox="0 0 24 24" fill="none" xmlns="http://www.w3.org/2000/svg">
<path fill-rule="evenodd" clip-rule="evenodd" d="M12.0004 1.25C9.57028 1.25 7.56636 3.07495 7.28439 5.42915C6.89068 5.50456 6.52797 5.61356 6.18005 5.77306C5.17462 6.23397 4.32345 6.97509 3.7286 7.90756C3.36856 8.47195 3.15492 9.1033 2.9871 9.87347C2.82267 10.628 2.69201 11.5688 2.52579 12.7656L2.51659 12.8319C2.30268 14.372 2.13546 15.5759 2.08467 16.5457C2.03311 17.5303 2.09549 18.3508 2.39169 19.1041C2.87581 20.3353 3.7697 21.362 4.92261 22.0109C5.628 22.4079 6.43214 22.5825 7.41449 22.6669C8.38202 22.75 9.59752 22.75 11.1524 22.75H12.8485C14.4034 22.75 15.6189 22.75 16.5864 22.6669C17.5687 22.5825 18.3729 22.4079 19.0783 22.0109C20.2312 21.362 21.1251 20.3353 21.6092 19.1041C21.9054 18.3508 21.9678 17.5303 21.9162 16.5457C21.8654 15.5759 21.6982 14.3719 21.4843 12.8318L21.4751 12.7656C21.3089 11.5688 21.1782 10.628 21.0138 9.87347C20.846 9.1033 20.6323 8.47195 20.2723 7.90756C19.6774 6.97509 18.8263 6.23397 17.8208 5.77306C17.4729 5.61356 17.1102 5.50456 16.7165 5.42915C16.4345 3.07495 14.4306 1.25 12.0004 1.25ZM11.143 5.25C10.241 5.24999 9.48165 5.24999 8.83153 5.27533C9.16084 3.82924 10.4546 2.75 12.0004 2.75C13.5463 2.75 14.84 3.82924 15.1693 5.27533C14.5192 5.24999 13.7599 5.24999 12.8578 5.25H11.143ZM8.53082 10.4697C8.23793 10.1768 7.76305 10.1768 7.47016 10.4697C7.17727 10.7626 7.17727 11.2374 7.47016 11.5303L7.87016 11.9303C10.1513 14.2114 13.8497 14.2114 16.1308 11.9303L16.5308 11.5303C16.8237 11.2374 16.8237 10.7626 16.5308 10.4697C16.2379 10.1768 15.7631 10.1768 15.4702 10.4697L15.0702 10.8697C13.3748 12.565 10.6262 12.565 8.93082 10.8697L8.53082 10.4697Z" fill="#2D264B"/>
</svg>
