<svg width="24" height="24" viewBox="0 0 24 24" fill="none" xmlns="http://www.w3.org/2000/svg">
<path fill-rule="evenodd" clip-rule="evenodd" d="M6.29874 5.25C6.66645 2.42849 9.07875 0.25 12.0002 0.25C14.9217 0.25 17.3341 2.42856 17.7017 5.25L18.3643 5.25C19.36 5.24997 20.1857 5.24994 20.8337 5.34049C21.5149 5.43567 22.127 5.64585 22.5926 6.16597C23.0581 6.68609 23.1994 7.31769 23.2188 8.00527C23.2372 8.65931 23.146 9.47993 23.036 10.4695L22.7281 13.2406C22.4981 15.3109 22.3174 16.937 22.0106 18.2008C21.696 19.4962 21.2283 20.5072 20.3598 21.2845C19.4905 22.0625 18.429 22.4154 17.0997 22.5847C15.8017 22.75 14.1536 22.75 12.0538 22.75H11.9467C9.8469 22.75 8.19872 22.75 6.90078 22.5847C5.5714 22.4154 4.50992 22.0625 3.64064 21.2845C2.77218 20.5072 2.30439 19.4962 1.98987 18.2008C1.68302 16.937 1.50236 15.3109 1.27233 13.2405L0.964441 10.4695C0.854456 9.47995 0.763249 8.65932 0.781677 8.00527C0.801051 7.31769 0.942341 6.68609 1.40787 6.16597C1.8734 5.64585 2.48554 5.43567 3.16678 5.34049C3.81478 5.24994 4.64048 5.24997 5.63616 5.25L6.29874 5.25ZM16.1843 5.25C15.8302 3.26065 14.0915 1.75 12.0002 1.75C9.90895 1.75 8.17019 3.26071 7.81612 5.25H16.1843Z" fill="#2D264B"/>
</svg>
