<svg width="24" height="24" viewBox="0 0 24 24" fill="none" xmlns="http://www.w3.org/2000/svg">
<path d="M1.72778 1.81826C1.62731 1.41642 1.2201 1.1721 0.818259 1.27257C0.416415 1.37305 0.172104 1.78025 0.272575 2.1821L1.32442 6.38907L2.30323 10.4731C2.71942 12.2096 3.04702 13.5765 3.43576 14.6384C3.83453 15.7277 4.32353 16.5733 5.10811 17.2218C5.17582 17.2777 5.2448 17.3321 5.315 17.3849C6.12846 17.9968 7.06477 18.2752 8.21696 18.4091C9.34019 18.5397 10.7458 18.5397 12.5314 18.5396H13.125C14.67 18.5397 15.8863 18.5397 16.8661 18.4406C17.8697 18.3391 18.6954 18.1285 19.4386 17.6632C19.791 17.4425 20.1186 17.1842 20.4153 16.8929C21.0012 16.3177 21.3873 15.6192 21.7072 14.7502H17.0003C16.5861 14.7502 16.2503 14.4144 16.2503 14.0002C16.2503 13.586 16.5861 13.2502 17.0003 13.2502H22.1701C22.2923 12.7957 22.4161 12.297 22.5485 11.7502L14.0003 11.7502C13.5861 11.7502 13.2503 11.4144 13.2503 11.0002C13.2503 10.586 13.5861 10.2502 14.0003 10.2502L22.9076 10.2502C23.0562 9.61688 23.1726 9.07364 23.2253 8.61271C23.2971 7.98492 23.2678 7.38716 22.9544 6.84137C22.8204 6.60794 22.6528 6.39544 22.457 6.21069C21.9993 5.77874 21.4248 5.61094 20.7976 5.53441C20.1932 5.46066 19.4255 5.46068 18.4938 5.4607L2.63848 5.4607L1.72778 1.81826Z" fill="#2D264B"/>
<path d="M9.42133 22.0002C10.0027 22.0002 10.474 21.5289 10.474 20.9475C10.474 20.3662 10.0027 19.8949 9.42133 19.8949C8.83998 19.8949 8.3687 20.3662 8.3687 20.9475C8.3687 21.5289 8.83998 22.0002 9.42133 22.0002Z" fill="#2D264B"/>
<path d="M15.7371 22.0002C16.3185 22.0002 16.7898 21.5289 16.7898 20.9475C16.7898 20.3662 16.3185 19.8949 15.7371 19.8949C15.1558 19.8949 14.6845 20.3662 14.6845 20.9475C14.6845 21.5289 15.1558 22.0002 15.7371 22.0002Z" fill="#2D264B"/>
</svg>
