<svg width="24" height="24" viewBox="0 0 24 24" fill="none" xmlns="http://www.w3.org/2000/svg">
<path fill-rule="evenodd" clip-rule="evenodd" d="M10.25 2.5C9.45664 2.5 8.78657 3.02796 8.57198 3.75171C8.35093 3.75525 8.17359 3.76595 8.01229 3.79804C7.02057 3.9953 6.24532 4.77055 6.04806 5.76227C5.99984 6.00468 5.99991 6.28332 6.00001 6.69212L6.00002 15.5374C6.00001 16.6842 6 17.5957 6.09601 18.3098C6.19499 19.046 6.4042 19.6468 6.8787 20.1213C7.3532 20.5958 7.95399 20.805 8.69022 20.904C9.40431 21 10.3158 21 11.4626 21H12.5374C13.6842 21 14.5957 21 15.3098 20.904C16.0461 20.805 16.6468 20.5958 17.1213 20.1213C17.5958 19.6468 17.805 19.046 17.904 18.3098C18 17.5957 18 16.6842 18 15.5374L18 6.69213C18.0001 6.28333 18.0002 6.00467 17.952 5.76227C17.7547 4.77055 16.9795 3.9953 15.9877 3.79804C15.8265 3.76595 15.6491 3.75525 15.4281 3.75171C15.2135 3.02796 14.5434 2.5 13.75 2.5H10.25ZM9.50002 4.25C9.50002 3.83579 9.8358 3.5 10.25 3.5H13.75C14.1642 3.5 14.5 3.83579 14.5 4.25C14.5 4.66421 14.1642 5 13.75 5H10.25C9.8358 5 9.50002 4.66421 9.50002 4.25ZM9.53236 13.9655L10.3737 11.1612L11.3852 16.8933C11.5071 17.5841 12.4858 17.6185 12.6559 16.9379L13.3904 14H15.5C15.7761 14 16 13.7761 16 13.5C16 13.2239 15.7761 13 15.5 13H13.1952C12.851 13 12.5511 13.2342 12.4676 13.5681L12.0844 15.101L11.1022 9.5354C10.9832 8.8608 10.0364 8.80545 9.83951 9.46158L8.62798 13.5H8.5C8.22386 13.5 8 13.7239 8 14C8 14.2761 8.22386 14.5 8.5 14.5H8.81399C9.1452 14.5 9.43719 14.2828 9.53236 13.9655Z" fill="white"/>
</svg>
