<svg width="24" height="24" viewBox="0 0 24 24" fill="none" xmlns="http://www.w3.org/2000/svg">
<path fill-rule="evenodd" clip-rule="evenodd" d="M9.91085 2.25002H10.2515C12.0055 2.24975 13.0714 2.24958 13.9246 2.52146C16.0231 3.19015 17.5553 4.99881 17.8699 7.1787C17.9204 7.52875 17.9236 7.90455 17.8912 8.33776C19.5729 8.70805 20.8312 10.2071 20.8312 12C20.8312 14.0711 19.1522 15.75 17.0812 15.75C16.9593 15.75 16.8386 15.7442 16.7194 15.7328L16.6328 16.2521C16.524 16.9057 16.4574 17.305 16.3522 17.6552C15.6984 19.8302 13.8257 21.4166 11.5729 21.7038C11.2101 21.7501 10.8054 21.7501 10.1429 21.75H10.0196C9.35706 21.7501 8.95221 21.7501 8.58948 21.7038C6.33662 21.4166 4.46392 19.8302 3.81018 17.6552C3.70491 17.305 3.63839 16.9057 3.5295 16.2521L2.62856 10.8465C2.33993 9.11639 2.16453 8.06499 2.29244 7.1787C2.60705 4.99881 4.13921 3.19015 6.23772 2.52146C7.09092 2.24958 8.15685 2.24975 9.91085 2.25002ZM16.967 14.2472C17.0048 14.2491 17.0429 14.25 17.0812 14.25C18.3238 14.25 19.3312 13.2427 19.3312 12C19.3312 10.9719 18.6416 10.1049 17.6998 9.83613C17.6507 10.1456 17.5948 10.4805 17.5339 10.8457L16.967 14.2472ZM6.81978 9.86979C6.74786 9.46187 6.35886 9.1895 5.95094 9.26142C5.54302 9.33335 5.27064 9.72235 5.34257 10.1303L6.38446 16.0391C6.45639 16.447 6.84538 16.7194 7.2533 16.6475C7.66122 16.5756 7.9336 16.1866 7.86167 15.7786L6.81978 9.86979Z" fill="#2D264B"/>
</svg>
