<svg width="24" height="24" viewBox="0 0 24 24" fill="none" xmlns="http://www.w3.org/2000/svg">
<path d="M14.0672 9.60725C14.2727 9.52264 14.4782 9.72812 14.3935 9.93361L13.2913 12.6105C13.1644 12.9187 12.9196 13.1635 12.6114 13.2904L9.93451 14.3926C9.72903 14.4772 9.52354 14.2718 9.60815 14.0663L10.7104 11.3894C10.8373 11.0812 11.0821 10.8364 11.3903 10.7095L14.0672 9.60725Z" fill="#2D264B"/>
<path fill-rule="evenodd" clip-rule="evenodd" d="M12.286 1.03051C12.096 1.02108 11.9057 1.02108 11.7158 1.03051C10.9824 1.06692 10.3072 1.28001 9.55458 1.62929C8.82185 1.96931 7.97042 2.46089 6.89326 3.0828L6.83225 3.11803C5.75507 3.73993 4.90363 4.2315 4.2428 4.69604C3.56399 5.17323 3.04187 5.65139 2.64365 6.26829C2.5405 6.4281 2.44534 6.59292 2.35853 6.76215C2.02338 7.41546 1.87034 8.10672 1.79649 8.93318C1.7246 9.73775 1.7246 10.7209 1.72461 11.9647V12.0352C1.7246 13.279 1.7246 14.2621 1.79649 15.0667C1.87034 15.8931 2.02338 16.5844 2.35853 17.2377C2.44534 17.407 2.5405 17.5718 2.64365 17.7316C3.04187 18.3485 3.56399 18.8266 4.2428 19.3038C4.90359 19.7683 5.75496 20.2599 6.83204 20.8817L6.89324 20.9171C7.97041 21.539 8.82185 22.0306 9.55458 22.3706C10.3072 22.7199 10.9824 22.9329 11.7158 22.9694C11.9057 22.9788 12.096 22.9788 12.286 22.9694C13.0194 22.9329 13.6945 22.7199 14.4472 22.3706C15.1799 22.0306 16.0314 21.539 17.1085 20.9171L17.1696 20.8818C18.2467 20.2599 19.0981 19.7684 19.759 19.3038C20.4378 18.8266 20.9599 18.3485 21.3581 17.7316C21.4613 17.5718 21.5564 17.407 21.6433 17.2377C21.9784 16.5844 22.1314 15.8931 22.2053 15.0667C22.2772 14.2621 22.2772 13.279 22.2772 12.0352V11.9647C22.2772 10.7209 22.2772 9.73774 22.2053 8.93318C22.1314 8.10672 21.9784 7.41546 21.6433 6.76215C21.5564 6.59292 21.4613 6.42809 21.3581 6.26829C20.9599 5.65139 20.4378 5.17323 19.759 4.69604C19.0981 4.2315 18.2467 3.73993 17.1695 3.11803L17.1085 3.0828C16.0314 2.46089 15.1799 1.96931 14.4472 1.62929C13.6945 1.28001 13.0194 1.06692 12.286 1.03051ZM15.7806 10.5047C16.3728 9.06635 14.9345 7.62796 13.4961 8.22024L10.8192 9.32248C10.1411 9.6017 9.6026 10.1402 9.32338 10.8183L8.22114 13.4952C7.62886 14.9335 9.06724 16.3719 10.5056 15.7797L13.1825 14.6774C13.8606 14.3982 14.3991 13.8597 14.6783 13.1816L15.7806 10.5047Z" fill="#2D264B"/>
</svg>
