<svg width="24" height="24" viewBox="0 0 24 24" fill="none" xmlns="http://www.w3.org/2000/svg">
<path fill-rule="evenodd" clip-rule="evenodd" d="M11.7138 1.03051C11.9038 1.02108 12.0941 1.02108 12.2841 1.03051C13.0174 1.06692 13.6926 1.28001 14.4452 1.62929C15.178 1.96931 16.0294 2.46089 17.1066 3.0828L17.1675 3.11801C18.2447 3.73991 19.0962 4.2315 19.757 4.69604C20.4358 5.17323 20.958 5.65139 21.3562 6.26829C21.4593 6.42809 21.5545 6.59292 21.6413 6.76215C21.9764 7.41546 22.1295 8.10672 22.2033 8.93318C22.2752 9.73774 22.2752 10.7209 22.2752 11.9647V12.0351C22.2752 13.2789 22.2752 14.2621 22.2033 15.0667C22.1295 15.8931 21.9764 16.5844 21.6413 17.2377C21.5545 17.407 21.4593 17.5718 21.3562 17.7316C20.958 18.3485 20.4358 18.8266 19.757 19.3038C19.0962 19.7684 18.2448 20.2599 17.1676 20.8818L17.1066 20.9171C16.0294 21.539 15.178 22.0306 14.4452 22.3706C13.6926 22.7199 13.0174 22.9329 12.2841 22.9694C12.0941 22.9788 11.9038 22.9788 11.7138 22.9694C10.9804 22.9329 10.3053 22.7199 9.55263 22.3706C8.8199 22.0306 7.96846 21.539 6.89128 20.9171L6.83023 20.8818C5.75316 20.26 4.90164 19.7683 4.24085 19.3038C3.56204 18.8266 3.03991 18.3485 2.6417 17.7316C2.53855 17.5718 2.44339 17.407 2.35657 17.2377C2.02142 16.5844 1.86838 15.8931 1.79454 15.0667C1.72265 14.2621 1.72265 13.279 1.72266 12.0352V11.9647C1.72265 10.7209 1.72265 9.73775 1.79454 8.93318C1.86838 8.10672 2.02142 7.41546 2.35657 6.76215C2.44339 6.59292 2.53855 6.4281 2.6417 6.26829C3.03991 5.65139 3.56204 5.17323 4.24085 4.69604C4.90168 4.2315 5.75312 3.73993 6.83029 3.11803L6.8913 3.0828C7.96847 2.46089 8.8199 1.96931 9.55263 1.62929C10.3053 1.28001 10.9804 1.06692 11.7138 1.03051ZM15.1861 8.81275C15.479 9.10564 15.479 9.58052 15.1861 9.87341L9.52923 15.5303C9.23634 15.8232 8.76146 15.8232 8.46857 15.5303C8.17568 15.2374 8.17568 14.7625 8.46857 14.4696L14.1254 8.81275C14.4183 8.51986 14.8932 8.51986 15.1861 8.81275ZM8.99902 9.99988C8.44674 9.99988 7.99902 9.55216 7.99902 8.99988C7.99902 8.44759 8.44674 7.99988 8.99902 7.99988C9.55131 7.99988 9.99902 8.44759 9.99902 8.99988C9.99902 9.55216 9.55131 9.99988 8.99902 9.99988ZM14.999 15.9999C14.4467 15.9999 13.999 15.5522 13.999 14.9999C13.999 14.4476 14.4467 13.9999 14.999 13.9999C15.5513 13.9999 15.999 14.4476 15.999 14.9999C15.999 15.5522 15.5513 15.9999 14.999 15.9999Z" fill="#2D264B"/>
</svg>
