<svg width="24" height="24" viewBox="0 0 24 24" fill="none" xmlns="http://www.w3.org/2000/svg">
<path d="M13.9681 2.25C15.1919 2.25 16.1535 2.24999 16.9325 2.31015C17.7275 2.37154 18.3892 2.4986 19.0028 2.78291C20.016 3.25244 20.8706 4.00685 21.4622 4.95403C21.8204 5.52758 22.0286 6.16844 22.1881 6.94964C22.3444 7.71517 22.4637 8.66936 22.6154 9.88359L22.6238 9.95023C22.8142 11.474 22.9632 12.6656 23.0007 13.6252C23.0388 14.5998 22.9668 15.4113 22.6661 16.1551C22.1743 17.3717 21.2811 18.3834 20.135 19.0224C19.4341 19.413 18.6379 19.5851 17.6661 19.6682C16.7092 19.75 15.5083 19.75 13.9726 19.75H12.7492V21.584C13.3735 21.6276 13.995 21.7259 14.6064 21.8787L16.1811 22.2724C16.5829 22.3729 16.8272 22.7801 16.7268 23.1819C16.6263 23.5837 16.2191 23.8281 15.8173 23.7276L14.2426 23.3339C13.5061 23.1498 12.7526 23.0578 11.9992 23.0578C11.2457 23.0578 10.4922 23.1498 9.7557 23.3339L8.18105 23.7276C7.77921 23.8281 7.37201 23.5837 7.27155 23.1819C7.17108 22.7801 7.4154 22.3729 7.81725 22.2724L9.3919 21.8787C10.0033 21.7259 10.6248 21.6276 11.2492 21.584V19.75H10.0257C8.48996 19.75 7.28909 19.75 6.33225 19.6682C5.36043 19.5851 4.56417 19.413 3.86335 19.0224C2.71719 18.3834 1.82405 17.3717 1.33223 16.1551C1.0315 15.4113 0.959547 14.5998 0.99762 13.6252C1.03511 12.6656 1.18406 11.474 1.37455 9.95014L1.38285 9.8837C1.53463 8.66942 1.65391 7.71519 1.81023 6.94964C1.96975 6.16844 2.1779 5.52758 2.53612 4.95403C3.1277 4.00685 3.98229 3.25244 4.99552 2.78291C5.60908 2.4986 6.2708 2.37154 7.06577 2.31015C7.84479 2.24999 8.80645 2.25 10.0302 2.25H13.9681Z" fill="#2D264B"/>
</svg>
