<svg width="24" height="24" viewBox="0 0 24 24" fill="none" xmlns="http://www.w3.org/2000/svg">
<path d="M4.99896 11.0781V13.6264C4.99896 15.4877 4.99896 16.4184 5.24367 17.1715C5.73826 18.6937 6.93168 19.8871 8.45387 20.3817C9.20703 20.6264 10.1377 20.6264 11.999 20.6264C13.8602 20.6264 14.7909 20.6264 15.544 20.3817C17.0662 19.8871 18.2597 18.6937 18.7542 17.1715C18.999 16.4184 18.999 15.4877 18.999 13.6264V11.0813M18.999 11.0813C18.0417 11.4693 16.8591 11.8907 15.4518 12.3933L13.3444 13.146C12.6785 13.3838 12.3455 13.5028 11.9991 13.5028C11.6526 13.5028 11.3197 13.3838 10.6537 13.146L8.5463 12.3933C4.14564 10.8217 1.94531 10.0358 1.94531 8.62638C1.94531 7.21695 4.14564 6.4311 8.54631 4.85942L10.6537 4.10677C11.3197 3.86892 11.6526 3.75 11.9991 3.75C12.3455 3.75 12.6785 3.86892 13.3444 4.10677L15.4518 4.85942C19.8525 6.4311 22.0528 7.21695 22.0528 8.62638C22.0528 9.58509 21.0351 10.2561 18.999 11.0813Z" stroke="#2D264B" stroke-width="1.5"/>
<path d="M10.4995 3.36538L8.23151 4.17545C6.08397 4.94242 4.39614 5.54521 3.25097 6.13759C2.14414 6.71014 1.19531 7.44609 1.19531 8.62638V15.6381C1.19531 16.0523 1.58474 16.3764 1.99896 16.3764C2.41317 16.3764 2.74896 16.0406 2.74896 15.6264V10.8351C2.46069 10.6602 2.19408 10.4693 1.96603 10.2565C1.50024 9.82179 1.19531 9.29549 1.19531 8.62638C1.19531 8.21216 1.58474 7.87638 1.99896 7.87638C2.07246 7.87638 2.14181 7.88695 2.20616 7.90666L1.99902 7.99988L2.15566 8.62643H2.69537C2.69537 8.85558 2.84671 9.21727 3.94021 9.78292C4.98427 10.323 6.57529 10.893 8.79862 11.6871L10.906 12.4397C11.6211 12.6951 11.8126 12.7528 11.9991 12.7528C12.1856 12.7528 12.3772 12.6951 13.0922 12.4397L15.2701 11.6619C16.6514 11.1686 17.7937 10.7606 18.7173 10.3863C19.728 9.97669 20.4099 9.63369 20.8328 9.30907C21.2388 8.99736 21.3029 8.78585 21.3029 8.62643H22.8028C22.8028 8.62642 22.8028 8.62645 22.8028 8.62643C22.8028 7.44614 21.854 6.71014 20.7472 6.13759C19.602 5.54521 17.9142 4.94242 15.7666 4.17544L13.4986 3.36539C12.9289 3.16135 12.4783 3 11.9991 3C11.5198 3 11.0693 3.16135 10.4995 3.36538Z" fill="#2D264B"/>
<path d="M22.7996 8.74459C22.7688 9.29407 22.5241 9.74782 22.1627 10.1277C22.5282 9.74561 22.7693 9.29483 22.7996 8.74459Z" fill="#2D264B"/>
</svg>
