<svg width="24" height="24" viewBox="0 0 24 24" fill="none" xmlns="http://www.w3.org/2000/svg">
<path d="M6.29318 4.96556C3.62636 6.90311 2.29295 7.87189 1.76925 9.30291C1.72724 9.41771 1.68945 9.534 1.65596 9.65157C1.23852 11.1171 1.74783 12.6846 2.76647 15.8197C3.7851 18.9547 4.29442 20.5222 5.49356 21.4625C5.58976 21.5379 5.68869 21.6098 5.79015 21.678C6.2168 21.9647 6.68707 22.1546 7.24951 22.2805V18.8197C7.24951 16.1963 9.37616 14.0697 11.9995 14.0697C14.6229 14.0697 16.7495 16.1963 16.7495 18.8197V22.2805C17.312 22.1546 17.7822 21.9647 18.2089 21.678C18.3103 21.6098 18.4093 21.5379 18.5055 21.4625C19.7046 20.5222 20.2139 18.9547 21.2326 15.8197C22.2512 12.6846 22.7605 11.1171 22.3431 9.65157C22.3096 9.534 22.2718 9.41771 22.2298 9.30291C21.7061 7.87189 20.3727 6.90312 17.7059 4.96557C15.0391 3.02801 13.7056 2.05923 12.1828 2.00336C12.0607 1.99888 11.9384 1.99888 11.8162 2.00336C10.2934 2.05923 8.95999 3.02801 6.29318 4.96556Z" fill="#2D264B"/>
<path d="M15.2495 22.4732V18.8197C15.2495 17.0247 13.7944 15.5697 11.9995 15.5697C10.2046 15.5697 8.74951 17.0247 8.74951 18.8197V22.4732C9.62247 22.5279 10.6787 22.5279 11.9995 22.5279C13.3203 22.5279 14.3766 22.5279 15.2495 22.4732Z" fill="#2D264B"/>
</svg>
