<svg width="24" height="24" viewBox="0 0 24 24" fill="none" xmlns="http://www.w3.org/2000/svg">
<path fill-rule="evenodd" clip-rule="evenodd" d="M6.29318 4.96556C3.62636 6.90311 2.29295 7.87189 1.76925 9.30291C1.72724 9.41771 1.68945 9.534 1.65596 9.65157C1.23852 11.1171 1.74783 12.6846 2.76647 15.8197C3.7851 18.9547 4.29442 20.5222 5.49356 21.4625C5.58976 21.5379 5.68869 21.6098 5.79015 21.678C7.05497 22.5279 8.70315 22.5279 11.9995 22.5279C15.2959 22.5279 16.9441 22.5279 18.2089 21.678C18.3103 21.6098 18.4093 21.5379 18.5055 21.4625C19.7046 20.5222 20.2139 18.9547 21.2326 15.8197C22.2512 12.6846 22.7605 11.1171 22.3431 9.65157C22.3096 9.534 22.2718 9.41771 22.2298 9.30291C21.7061 7.87189 20.3727 6.90312 17.7059 4.96557C15.0391 3.02801 13.7056 2.05923 12.1828 2.00336C12.0607 1.99888 11.9384 1.99888 11.8162 2.00336C10.2934 2.05923 8.95999 3.02801 6.29318 4.96556ZM9.99951 17.0697C9.5853 17.0697 9.24951 17.4054 9.24951 17.8197C9.24951 18.2339 9.5853 18.5697 9.99951 18.5697H13.9995C14.4137 18.5697 14.7495 18.2339 14.7495 17.8197C14.7495 17.4054 14.4137 17.0697 13.9995 17.0697H9.99951Z" fill="#2D264B"/>
</svg>
