<svg width="24" height="24" viewBox="0 0 24 24" fill="none" xmlns="http://www.w3.org/2000/svg">
<path fill-rule="evenodd" clip-rule="evenodd" d="M6.99893 3.35074C7.46631 3.08311 8.01937 3.09878 8.47044 3.31883C10.6792 4.39634 13.3243 4.39746 15.5339 3.32185C15.9901 3.09981 16.55 3.08687 17.0196 3.36265L20.4859 5.39847C20.8006 5.58844 20.9988 5.93654 21 6.30489L21 6.30637C21.0016 12.2605 17.73 17.8807 12.5743 20.8465C12.2224 21.0488 11.7778 21.0488 11.426 20.8466C6.2539 17.8714 2.97928 12.2256 3.0001 6.25272C3.00129 5.88437 3.1995 5.5363 3.51419 5.34633L3.52407 5.34037L6.99893 3.35074ZM10.6876 8.81232C10.6876 8.40462 10.6876 8.20077 10.7542 8.03997C10.843 7.82557 11.0134 7.65523 11.2278 7.56642C11.3886 7.49982 11.5924 7.49982 12.0001 7.49982C12.4078 7.49982 12.6117 7.49982 12.7725 7.56642C12.9869 7.65523 13.1572 7.82557 13.246 8.03997C13.3126 8.20077 13.3126 8.40462 13.3126 8.81232V9.64532C13.3126 9.66512 13.3126 9.67502 13.3188 9.68117C13.3249 9.68732 13.3348 9.68732 13.3546 9.68732H14.1876C14.5953 9.68732 14.7992 9.68732 14.96 9.75392C15.1744 9.84273 15.3447 10.0131 15.4335 10.2275C15.5001 10.3883 15.5001 10.5921 15.5001 10.9998C15.5001 11.4075 15.5001 11.6114 15.4335 11.7722C15.3447 11.9866 15.1744 12.1569 14.96 12.2457C14.7992 12.3123 14.5953 12.3123 14.1876 12.3123H13.3546C13.3348 12.3123 13.3249 12.3123 13.3188 12.3185C13.3126 12.3246 13.3126 12.3345 13.3126 12.3543V13.1873C13.3126 13.595 13.3126 13.7989 13.246 13.9597C13.1572 14.1741 12.9869 14.3444 12.7725 14.4332C12.6117 14.4998 12.4078 14.4998 12.0001 14.4998C11.5924 14.4998 11.3886 14.4998 11.2278 14.4332C11.0134 14.3444 10.843 14.1741 10.7542 13.9597C10.6876 13.7989 10.6876 13.595 10.6876 13.1873V12.3543C10.6876 12.3345 10.6876 12.3246 10.6815 12.3185C10.6753 12.3123 10.6654 12.3123 10.6456 12.3123H9.81262C9.40492 12.3123 9.20107 12.3123 9.04027 12.2457C8.82587 12.1569 8.65553 11.9866 8.56673 11.7722C8.50012 11.6114 8.50012 11.4075 8.50012 10.9998C8.50012 10.5921 8.50012 10.3883 8.56673 10.2275C8.65553 10.0131 8.82587 9.84273 9.04027 9.75392C9.20107 9.68732 9.40492 9.68732 9.81262 9.68732H10.6456C10.6654 9.68732 10.6753 9.68732 10.6815 9.68117C10.6876 9.67502 10.6876 9.66512 10.6876 9.64532V8.81232Z" fill="white"/>
</svg>
