<svg width="24" height="24" viewBox="0 0 24 24" fill="none" xmlns="http://www.w3.org/2000/svg">
<path fill-rule="evenodd" clip-rule="evenodd" d="M6.26197 21.2246C8.99564 22.9161 12.3638 21.5411 13.9521 19.9508C16.6826 17.2169 16.6826 12.7844 13.9521 10.0504C11.2217 7.31652 6.79467 7.31652 4.06419 10.0504C2.40825 11.7085 1.09635 15.0195 2.7915 17.7506C2.88538 17.9019 2.93232 17.9775 2.95528 18.0352C2.99904 18.1453 3.0119 18.2297 3.00285 18.3478C2.99811 18.4098 2.97999 18.4797 2.94376 18.6197C2.71582 19.5002 2.60185 19.9405 2.66632 20.2577C2.77821 20.8082 3.20791 21.2384 3.75772 21.3505C4.07451 21.415 4.51422 21.3009 5.39365 21.0727C5.53339 21.0364 5.6033 21.0183 5.66497 21.0135C5.78289 21.0044 5.86629 21.017 5.97626 21.0606C6.03377 21.0834 6.10984 21.1305 6.26197 21.2246ZM11.9473 14.25C12.3615 14.25 12.6973 14.5858 12.6973 15C12.6973 15.4142 12.3615 15.75 11.9473 15.75L5.94727 15.75C5.53306 15.75 5.19727 15.4142 5.19727 15C5.19727 14.5858 5.53306 14.25 5.94727 14.25L11.9473 14.25Z" fill="#2D264B"/>
<path d="M5.36885 7.84948C8.36359 6.34256 12.1074 6.84052 14.6071 9.34336C17.0449 11.7843 17.5783 15.41 16.2071 18.3693C16.3975 18.277 16.586 18.1736 16.772 18.0585C16.9568 17.9441 17.0491 17.887 17.119 17.8593C17.2525 17.8064 17.3538 17.791 17.497 17.8021C17.5718 17.8079 17.6567 17.8299 17.8264 17.874C18.8942 18.1511 19.4282 18.2897 19.8129 18.2113C20.4805 18.0753 21.0023 17.5528 21.1382 16.8843C21.2165 16.4992 21.0781 15.9646 20.8013 14.8954C20.7573 14.7254 20.7353 14.6404 20.7295 14.5652C20.7185 14.4218 20.7342 14.3192 20.7873 14.1856C20.8152 14.1155 20.8722 14.0237 20.9862 13.8401C23.0446 10.5236 21.4515 6.50314 19.4408 4.48982C16.1252 1.17006 10.7495 1.17006 7.43396 4.48982C6.45875 5.46626 5.77038 6.62113 5.36885 7.84948Z" fill="#2D264B"/>
</svg>
