<svg width="24" height="24" viewBox="0 0 24 24" fill="none" xmlns="http://www.w3.org/2000/svg">
<path fill-rule="evenodd" clip-rule="evenodd" d="M17.6853 21.2246C14.9516 22.9161 11.5834 21.5411 9.99512 19.9508C7.26464 17.2169 7.26464 12.7844 9.99512 10.0504C12.7256 7.31652 17.1526 7.31652 19.8831 10.0504C21.539 11.7085 22.8509 15.0195 21.1558 17.7506C21.0619 17.9019 21.0149 17.9775 20.992 18.0352C20.9482 18.1453 20.9354 18.2297 20.9444 18.3478C20.9492 18.4098 20.9673 18.4797 21.0035 18.6197C21.2314 19.5002 21.3454 19.9405 21.2809 20.2577C21.1691 20.8082 20.7394 21.2384 20.1895 21.3505C19.8728 21.415 19.433 21.3009 18.5536 21.0727C18.4139 21.0364 18.344 21.0183 18.2823 21.0135C18.1644 21.0044 18.081 21.017 17.971 21.0606C17.9135 21.0834 17.8374 21.1305 17.6853 21.2246ZM12 14.25C11.5858 14.25 11.25 14.5858 11.25 15C11.25 15.4142 11.5858 15.75 12 15.75L18 15.75C18.4142 15.75 18.75 15.4142 18.75 15C18.75 14.5858 18.4142 14.25 18 14.25L12 14.25Z" fill="#2D264B"/>
<path d="M18.5784 7.84948C15.5837 6.34256 11.8399 6.84052 9.34019 9.34336C6.90233 11.7843 6.36899 15.41 7.74016 18.3693C7.54978 18.277 7.3613 18.1736 7.17523 18.0585C6.9905 17.9441 6.89814 17.887 6.8283 17.8593C6.69477 17.8064 6.5935 17.791 6.45031 17.8021C6.37542 17.8079 6.29058 17.8299 6.12091 17.874C5.05303 18.1511 4.51903 18.2897 4.13437 18.2113C3.46673 18.0753 2.94496 17.5528 2.80909 16.8843C2.7308 16.4992 2.86919 15.9646 3.14598 14.8954C3.18997 14.7254 3.21197 14.6404 3.21774 14.5652C3.22872 14.4218 3.21311 14.3192 3.15997 14.1856C3.13209 14.1155 3.0751 14.0237 2.96111 13.8401C0.902705 10.5236 2.49572 6.50314 4.50651 4.48982C7.82209 1.17006 13.1977 1.17006 16.5133 4.48982C17.4885 5.46626 18.1769 6.62113 18.5784 7.84948Z" fill="#2D264B"/>
</svg>
