<svg width="24" height="24" viewBox="0 0 24 24" fill="none" xmlns="http://www.w3.org/2000/svg">
<path d="M12.9193 12.0139C11.0511 8.77822 11.3964 5.88864 11.6713 4.03518L11.6999 3.84384C11.7574 3.46073 11.8128 3.09193 11.8315 2.79169C11.8426 2.61355 11.8443 2.41785 11.8137 2.22975C11.7837 2.04484 11.7114 1.79764 11.5174 1.58859C11.0766 1.11367 10.4575 1.24552 10.1232 1.35231C9.72585 1.47922 9.22929 1.73129 8.62679 2.07914C3.48515 5.04767 1.72349 11.6223 4.69202 16.7639C7.66055 21.9056 14.2351 23.6672 19.3768 20.6987C19.9793 20.3508 20.4459 20.0468 20.7544 19.7662C21.0141 19.53 21.4378 19.0598 21.2469 18.4406C21.1629 18.1681 20.9849 17.9819 20.8398 17.8634C20.6922 17.7429 20.5219 17.6465 20.3621 17.567C20.0927 17.4332 19.7457 17.2967 19.3851 17.155L19.205 17.0841C17.4625 16.3954 14.7874 15.2496 12.9193 12.0139Z" fill="#2D264B"/>
</svg>
