<svg width="24" height="24" viewBox="0 0 24 24" fill="none" xmlns="http://www.w3.org/2000/svg">
<path d="M19.25 7.4862L10.75 10.0362V18.4782C10.75 20.5492 9.07107 22.2282 7 22.2282C4.92893 22.2282 3.25 20.5492 3.25 18.4782C3.25 16.4071 4.92893 14.7282 7 14.7282C7.8442 14.7282 8.62325 15.0071 9.25 15.4779V5.98678C9.25 4.75896 10.0639 3.6799 11.2445 3.34259L13.2867 2.75912L17.8679 1.34952C19.3001 0.908847 20.75 1.97974 20.75 3.47818V15.4782C20.75 17.5492 19.0711 19.2282 17 19.2282C14.9289 19.2282 13.25 17.5492 13.25 15.4782C13.25 13.4071 14.9289 11.7282 17 11.7282C17.8442 11.7282 18.6233 12.0071 19.25 12.4779V7.4862Z" fill="#2D264B"/>
</svg>
