<svg width="24" height="24" viewBox="0 0 24 24" fill="none" xmlns="http://www.w3.org/2000/svg">
<path fill-rule="evenodd" clip-rule="evenodd" d="M14.5 15C14.5001 15.1007 14.4699 15.2024 14.4068 15.2906L11.9068 18.7906C11.7463 19.0153 11.4341 19.0674 11.2094 18.9069C10.9847 18.7464 10.9326 18.4341 11.0931 18.2094L11.4719 17.6791L9.14645 15.3536C9.04881 15.2559 9 15.128 9 15H8.5C7.86838 15 7.01107 15.3008 6.31265 15.8596C5.59839 16.431 5 17.3141 5 18.5C5 19.036 5.0659 19.5582 5.29128 20.0286C5.52244 20.511 5.90116 20.8973 6.45221 21.1912C7.51078 21.7557 9.25065 21.9998 11.9968 22L12 22C14.748 22 16.4888 21.756 17.5478 21.1912C18.0989 20.8973 18.4776 20.511 18.7087 20.0286C18.9341 19.5582 19 19.036 19 18.5C19 17.3141 18.4016 16.431 17.6874 15.8596C16.9889 15.3008 16.1316 15 15.5 15H14.5ZM8.75 17.25C8.75 16.9739 8.52614 16.75 8.25 16.75C7.97386 16.75 7.75 16.9739 7.75 17.25V17.5H7.5C7.22386 17.5 7 17.7239 7 18C7 18.2761 7.22386 18.5 7.5 18.5H7.75V18.75C7.75 19.0261 7.97386 19.25 8.25 19.25C8.52614 19.25 8.75 19.0261 8.75 18.75V18.5H9C9.27614 18.5 9.5 18.2761 9.5 18C9.5 17.7239 9.27614 17.5 9 17.5H8.75V17.25Z" fill="white"/>
<path fill-rule="evenodd" clip-rule="evenodd" d="M15.7777 5.08413C16.2675 5.41067 16.6914 6.02986 16.997 6.7236C17.3093 7.4327 17.5286 8.28797 17.5624 9.15564C17.5963 10.0225 17.4458 10.93 16.9866 11.7151C16.6178 12.3457 16.0626 12.8745 15.2933 13.2333C15.1844 13.4338 15.0645 13.6259 14.9348 13.8071C14.2825 14.7183 13.2658 15.5002 12.0003 15.5002C10.7348 15.5002 9.71816 14.7183 9.06586 13.8071C8.93611 13.6259 8.81623 13.4338 8.70734 13.2333C7.93797 12.8745 7.38285 12.3457 7.01399 11.7151C6.55482 10.93 6.40431 10.0225 6.43817 9.15564C6.47206 8.28797 6.69131 7.4327 7.00365 6.7236C7.30922 6.02986 7.73312 5.41067 8.22293 5.08413C8.87663 4.64833 9.28843 5.97049 9.52852 6.36247C9.61137 6.50595 9.79446 6.55417 9.943 6.48077C10.5815 6.16521 11.2854 6.00016 12.0003 6.00016C12.7152 6.00016 13.4191 6.16521 14.0576 6.48077C14.2061 6.55417 14.3892 6.50595 14.4721 6.36247C14.7121 5.9707 15.1239 4.64827 15.7777 5.08413ZM13.3538 7.14661C13.5491 7.34187 13.5491 7.65845 13.3538 7.85372C13.255 7.95258 13.121 8.08597 12.9459 8.23816C13.1574 8.44691 13.3417 8.61184 13.5989 8.74045C13.8879 8.88496 14.307 9.00016 15.0003 9.00016C15.2764 9.00016 15.5003 9.22402 15.5003 9.50016C15.5003 9.58813 15.4776 9.67079 15.4377 9.7426C15.4788 9.98828 15.5003 10.2416 15.5003 10.5002C15.5003 11.5742 15.13 12.6754 14.5282 13.5161C13.9306 14.3509 13.0473 15.0002 12.0003 15.0002C10.9534 15.0002 10.07 14.3509 9.47242 13.5161C8.87062 12.6754 8.50031 11.5742 8.50031 10.5002C8.50031 10.3025 8.51284 10.108 8.53712 9.91761C8.35095 9.8611 8.20713 9.69803 8.18503 9.49239C8.15553 9.21783 8.3542 8.97134 8.62876 8.94184C11.1195 8.67424 12.2339 7.55956 12.6389 7.15444L12.6467 7.14661C12.842 6.95135 13.1586 6.95135 13.3538 7.14661Z" fill="white"/>
<path fill-rule="evenodd" clip-rule="evenodd" d="M8.02919 3.12817C9.25153 2.4823 10.6145 2.14355 12.0002 2.14355C13.3859 2.14355 14.7489 2.4823 15.9712 3.12817C16.3793 3.34378 16.5016 3.84697 16.2832 4.22516L14.905 6.6123C14.6803 7.00155 14.2023 7.1099 13.836 6.92885C13.2662 6.64727 12.6381 6.49999 12.0002 6.49999C11.3623 6.49999 10.7342 6.64727 10.1644 6.92885C9.79809 7.1099 9.32015 7.00155 9.09542 6.6123L7.7172 4.22516C7.49885 3.84697 7.62115 3.34378 8.02919 3.12817ZM8.69157 3.91281L9.87362 5.96019C10.5398 5.6577 11.2647 5.49999 12.0002 5.49999C12.7357 5.49999 13.4606 5.6577 14.1268 5.96019L15.3089 3.91281C14.2813 3.4077 13.1496 3.14355 12.0002 3.14355C10.8508 3.14355 9.7191 3.4077 8.69157 3.91281Z" fill="white"/>
</svg>
