<svg width="24" height="24" viewBox="0 0 24 24" fill="none" xmlns="http://www.w3.org/2000/svg">
<path d="M7.75098 11.9999C7.75098 11.3096 8.31062 10.7499 9.00098 10.7499C9.69133 10.7499 10.251 11.3096 10.251 11.9999C10.251 12.6903 9.69133 13.2499 9.00098 13.2499C8.31062 13.2499 7.75098 12.6903 7.75098 11.9999Z" fill="#2D264B"/>
<path fill-rule="evenodd" clip-rule="evenodd" d="M11.753 1.77959C10.5468 1.83947 9.44376 2.47629 7.23775 3.74993C5.03174 5.02358 3.92873 5.6604 3.27378 6.67504C3.18408 6.814 3.10133 6.95732 3.02584 7.10448C2.47461 8.17901 2.47461 9.45265 2.47461 11.9999C2.47461 14.5472 2.47461 15.8209 3.02584 16.8954C3.10133 17.0425 3.18408 17.1859 3.27378 17.3248C3.92873 18.3395 5.03174 18.9763 7.23775 20.2499C9.44375 21.5236 10.5468 22.1604 11.753 22.2203C11.9181 22.2285 12.0836 22.2285 12.2488 22.2203C13.455 22.1604 14.558 21.5236 16.764 20.2499C18.97 18.9763 20.073 18.3395 20.728 17.3248C20.8177 17.1859 20.9004 17.0425 20.9759 16.8954C21.5272 15.8209 21.5272 14.5472 21.5272 11.9999C21.5272 9.45265 21.5272 8.17901 20.9759 7.10448C20.9004 6.95732 20.8177 6.814 20.728 6.67504C20.073 5.6604 18.97 5.02358 16.764 3.74993C14.558 2.47629 13.455 1.83947 12.2488 1.77959C12.0836 1.77139 11.9181 1.77139 11.753 1.77959ZM9.00098 9.24994C7.48219 9.24994 6.25098 10.4812 6.25098 11.9999C6.25098 13.5187 7.48219 14.7499 9.00098 14.7499C10.2598 14.7499 11.321 13.9042 11.6475 12.7499H13.4897C13.545 13.021 13.5094 13.306 13.3829 13.559L13.3302 13.6645C13.1449 14.035 13.2951 14.4855 13.6656 14.6708C14.0361 14.856 14.4866 14.7058 14.6718 14.3353L14.7246 14.2298C14.9565 13.766 15.0494 13.2531 15.0035 12.7499H16.4897C16.545 13.021 16.5094 13.306 16.3829 13.559L16.3302 13.6645C16.1449 14.035 16.2951 14.4855 16.6656 14.6708C17.036 14.856 17.4866 14.7058 17.6718 14.3353L17.7246 14.2298C18.1117 13.4556 18.1117 12.5443 17.7246 11.7701C17.5652 11.4513 17.2394 11.2499 16.8829 11.2499H14.0161C14.0056 11.2497 13.9952 11.2497 13.9847 11.2499H11.6475C11.321 10.0957 10.2598 9.24994 9.00098 9.24994Z" fill="#2D264B"/>
</svg>
