<svg width="24" height="24" viewBox="0 0 24 24" fill="none" xmlns="http://www.w3.org/2000/svg">
<path d="M7.75089 10.9999C7.75089 10.8619 7.86281 10.7499 8.00089 10.7499H9.52385C9.62608 10.7499 9.71801 10.8122 9.75597 10.9071L10.156 11.9071C10.1679 11.9369 10.1739 11.9684 10.1739 11.9999C10.1739 12.0315 10.1679 12.063 10.156 12.0928L9.75597 13.0928C9.71801 13.1877 9.62608 13.2499 9.52385 13.2499H8.00089C7.86281 13.2499 7.75089 13.138 7.75089 12.9999V10.9999Z" fill="#2D264B"/>
<path fill-rule="evenodd" clip-rule="evenodd" d="M11.753 1.77959C10.5468 1.83947 9.44376 2.47629 7.23775 3.74993C5.03174 5.02358 3.92873 5.6604 3.27378 6.67504C3.18408 6.814 3.10133 6.95732 3.02584 7.10448C2.47461 8.17901 2.47461 9.45265 2.47461 11.9999C2.47461 14.5472 2.47461 15.8209 3.02584 16.8954C3.10133 17.0425 3.18408 17.1859 3.27378 17.3248C3.92873 18.3395 5.03174 18.9763 7.23775 20.2499C9.44375 21.5236 10.5468 22.1604 11.753 22.2203C11.9181 22.2285 12.0836 22.2285 12.2488 22.2203C13.455 22.1604 14.558 21.5236 16.764 20.2499C18.97 18.9763 20.073 18.3395 20.728 17.3248C20.8177 17.1859 20.9004 17.0425 20.9759 16.8954C21.5272 15.8209 21.5272 14.5472 21.5272 11.9999C21.5272 9.45265 21.5272 8.17901 20.9759 7.10448C20.9004 6.95732 20.8177 6.814 20.728 6.67504C20.073 5.6604 18.97 5.02358 16.764 3.74993C14.558 2.47629 13.455 1.83947 12.2488 1.77959C12.0836 1.77139 11.9181 1.77139 11.753 1.77959ZM8.00089 9.24994C7.03439 9.24994 6.25089 10.0334 6.25089 10.9999V12.9999C6.25089 13.9664 7.03439 14.7499 8.00089 14.7499H9.52385C10.2394 14.7499 10.8829 14.3143 11.1487 13.6499L11.5087 12.7499H13.4896C13.5449 13.021 13.5093 13.306 13.3829 13.559L13.3301 13.6645C13.1448 14.035 13.295 14.4855 13.6655 14.6708C14.036 14.856 14.4865 14.7058 14.6717 14.3353L14.7245 14.2298C14.9564 13.766 15.0493 13.2531 15.0034 12.7499H16.4896C16.5449 13.021 16.5093 13.306 16.3829 13.559L16.3301 13.6645C16.1448 14.035 16.295 14.4855 16.6655 14.6708C17.036 14.856 17.4865 14.7058 17.6717 14.3353L17.7245 14.2298C18.1116 13.4556 18.1116 12.5443 17.7245 11.7701C17.5651 11.4513 17.2393 11.2499 16.8829 11.2499H14.016C14.0055 11.2497 13.9951 11.2497 13.9846 11.2499H11.5087L11.1487 10.35C10.8829 9.6856 10.2394 9.24994 9.52385 9.24994H8.00089Z" fill="#2D264B"/>
</svg>
