<svg width="24" height="24" viewBox="0 0 24 24" fill="none" xmlns="http://www.w3.org/2000/svg">
<path d="M10.4166 8.82661C10.6787 8.75638 11.0207 8.74994 11.999 8.74994C12.9772 8.74994 13.3192 8.75638 13.5813 8.82661C14.3578 9.03466 14.9642 9.64114 15.1723 10.4176C15.2425 10.6797 15.249 11.0217 15.249 11.9999C15.249 12.9782 15.2425 13.3202 15.1723 13.5823C14.9642 14.3587 14.3578 14.9652 13.5813 15.1733C13.3192 15.2435 12.9772 15.2499 11.999 15.2499C11.0207 15.2499 10.6787 15.2435 10.4166 15.1733C9.64016 14.9652 9.03368 14.3587 8.82563 13.5823C8.7554 13.3202 8.74896 12.9782 8.74896 11.9999C8.74896 11.0217 8.7554 10.6797 8.82563 10.4176C9.03368 9.64114 9.64016 9.03466 10.4166 8.82661Z" fill="#2D264B"/>
<path fill-rule="evenodd" clip-rule="evenodd" d="M11.7138 1.03051C11.9038 1.02108 12.0941 1.02108 12.2841 1.03051C13.0174 1.06692 13.6926 1.28001 14.4452 1.62929C15.178 1.96931 16.0294 2.46089 17.1066 3.0828L17.1675 3.11801C18.2447 3.73991 19.0962 4.2315 19.757 4.69604C20.4358 5.17323 20.958 5.65139 21.3562 6.26829C21.4593 6.42809 21.5545 6.59292 21.6413 6.76215C21.9764 7.41546 22.1295 8.10672 22.2033 8.93318C22.2752 9.73774 22.2752 10.7209 22.2752 11.9647V12.0351C22.2752 13.2789 22.2752 14.2621 22.2033 15.0667C22.1295 15.8931 21.9764 16.5844 21.6413 17.2377C21.5545 17.407 21.4593 17.5718 21.3562 17.7316C20.958 18.3485 20.4358 18.8266 19.757 19.3038C19.0962 19.7684 18.2448 20.2599 17.1676 20.8818L17.1066 20.9171C16.0294 21.539 15.178 22.0306 14.4452 22.3706C13.6926 22.7199 13.0174 22.9329 12.2841 22.9694C12.0941 22.9788 11.9038 22.9788 11.7138 22.9694C10.9804 22.9329 10.3053 22.7199 9.55263 22.3706C8.8199 22.0306 7.96846 21.539 6.89128 20.9171L6.83023 20.8818C5.75316 20.26 4.90164 19.7683 4.24085 19.3038C3.56204 18.8266 3.03991 18.3485 2.6417 17.7316C2.53855 17.5718 2.44339 17.407 2.35657 17.2377C2.02142 16.5844 1.86838 15.8931 1.79454 15.0667C1.72265 14.2621 1.72265 13.279 1.72266 12.0352V11.9647C1.72265 10.7209 1.72265 9.73775 1.79454 8.93318C1.86838 8.10672 2.02142 7.41546 2.35657 6.76215C2.44339 6.59292 2.53855 6.4281 2.6417 6.26829C3.03991 5.65139 3.56204 5.17323 4.24085 4.69604C4.90168 4.2315 5.75312 3.73993 6.83029 3.11803L6.8913 3.0828C7.96847 2.46089 8.8199 1.96931 9.55263 1.62929C10.3053 1.28001 10.9804 1.06692 11.7138 1.03051ZM11.8832 7.24991C11.0652 7.24964 10.5071 7.24946 10.0284 7.37772C8.7343 7.72447 7.72349 8.73527 7.37674 10.0294C7.24848 10.508 7.24867 11.0662 7.24894 11.8841V12.1157C7.24867 12.9337 7.24848 13.4918 7.37674 13.9705C7.72349 15.2646 8.7343 16.2754 10.0284 16.6222C10.5071 16.7504 11.0652 16.7502 11.8832 16.75H12.1148C12.9327 16.7502 13.4909 16.7504 13.9695 16.6222C15.2636 16.2754 16.2744 15.2646 16.6212 13.9705C16.7494 13.4918 16.7493 12.9337 16.749 12.1157V11.8841C16.7493 11.0662 16.7494 10.508 16.6212 10.0294C16.2744 8.73527 15.2636 7.72447 13.9695 7.37772C13.4909 7.24946 12.9327 7.24964 12.1148 7.24991H11.8832Z" fill="#2D264B"/>
</svg>
