<svg width="24" height="24" viewBox="0 0 24 24" fill="none" xmlns="http://www.w3.org/2000/svg">
<path d="M8.48121 3.43211C10.069 0.681928 13.5857 -0.260352 16.3359 1.32747C19.086 2.91528 20.0283 6.43193 18.4405 9.18211L18.3324 9.36941C19.6146 11.4995 19.8322 14.1857 18.7528 16.5679C18.5956 16.915 18.3756 17.2959 17.995 17.9551L17.9558 18.023C17.9104 18.1018 17.8632 18.1836 17.8122 18.2548C17.3259 18.9334 16.428 19.174 15.6675 18.8294C15.5878 18.7933 15.5061 18.7461 15.4274 18.7005L9.23608 15.126L5.61108 21.4047C5.40397 21.7634 4.94528 21.8863 4.58656 21.6792C4.22784 21.4721 4.10494 21.0134 4.31204 20.6547L7.93704 14.376L1.74577 10.8015C1.66697 10.756 1.58516 10.7089 1.51402 10.6579C0.835394 10.1716 0.594787 9.27365 0.939348 8.51319C0.975465 8.43348 1.02274 8.35174 1.06827 8.27301L1.1074 8.20525C1.48802 7.54597 1.70799 7.16495 1.92995 6.8552C3.453 4.72979 5.88741 3.5751 8.3727 3.62005L8.48121 3.43211Z" fill="#2D264B"/>
</svg>
