<svg width="24" height="24" viewBox="0 0 24 24" fill="none" xmlns="http://www.w3.org/2000/svg">
<path d="M10.732 8.75179C10.8105 8.743 10.9799 8.75804 11.3825 8.956C11.78 9.15141 12.2884 9.46329 13.0269 9.91782C13.7651 10.3721 14.2731 10.6857 14.6314 10.9555C14.9898 11.2255 15.1033 11.3842 15.1476 11.4903C15.2827 11.8138 15.2827 12.1861 15.1476 12.5095C15.1033 12.6157 14.9898 12.7744 14.6314 13.0443C14.2731 13.3142 13.7651 13.6277 13.0269 14.0821C12.2884 14.5366 11.78 14.8485 11.3825 15.0439C10.9799 15.2418 10.8105 15.2569 10.732 15.2481C10.4405 15.2154 10.1603 15.0508 9.97051 14.7723C9.90643 14.6783 9.83123 14.4862 9.79018 14.0091C9.74963 13.538 9.74896 12.9067 9.74896 11.9999C9.74896 11.0932 9.74963 10.4619 9.79018 9.99074C9.83123 9.51369 9.90643 9.32155 9.97051 9.22753C10.1603 8.94912 10.4405 8.78446 10.732 8.75179Z" fill="#2D264B"/>
<path fill-rule="evenodd" clip-rule="evenodd" d="M11.7138 1.03051C11.9038 1.02108 12.0941 1.02108 12.2841 1.03051C13.0174 1.06692 13.6926 1.28001 14.4452 1.62929C15.178 1.96931 16.0294 2.46089 17.1066 3.0828L17.1675 3.11801C18.2447 3.73991 19.0962 4.2315 19.757 4.69604C20.4358 5.17323 20.958 5.65139 21.3562 6.26829C21.4593 6.42809 21.5545 6.59292 21.6413 6.76215C21.9764 7.41546 22.1295 8.10672 22.2033 8.93318C22.2752 9.73774 22.2752 10.7209 22.2752 11.9647V12.0351C22.2752 13.2789 22.2752 14.2621 22.2033 15.0667C22.1295 15.8931 21.9764 16.5844 21.6413 17.2377C21.5545 17.407 21.4593 17.5718 21.3562 17.7316C20.958 18.3485 20.4358 18.8266 19.757 19.3038C19.0962 19.7684 18.2448 20.2599 17.1676 20.8818L17.1066 20.9171C16.0294 21.539 15.178 22.0306 14.4452 22.3706C13.6926 22.7199 13.0174 22.9329 12.2841 22.9694C12.0941 22.9788 11.9038 22.9788 11.7138 22.9694C10.9804 22.9329 10.3053 22.7199 9.55263 22.3706C8.8199 22.0306 7.96846 21.539 6.89128 20.9171L6.83023 20.8818C5.75316 20.26 4.90164 19.7683 4.24085 19.3038C3.56204 18.8266 3.03991 18.3485 2.6417 17.7316C2.53855 17.5718 2.44339 17.407 2.35657 17.2377C2.02142 16.5844 1.86838 15.8931 1.79454 15.0667C1.72265 14.2621 1.72265 13.279 1.72266 12.0352V11.9647C1.72265 10.7209 1.72265 9.73775 1.79454 8.93318C1.86838 8.10672 2.02142 7.41546 2.35657 6.76215C2.44339 6.59292 2.53855 6.4281 2.6417 6.26829C3.03991 5.65139 3.56204 5.17323 4.24085 4.69604C4.90168 4.2315 5.75312 3.73993 6.83029 3.11803L6.8913 3.0828C7.96847 2.46089 8.8199 1.96931 9.55263 1.62929C10.3053 1.28001 10.9804 1.06692 11.7138 1.03051ZM13.7797 8.61981C13.0827 8.19083 12.5136 7.84055 12.0443 7.60987C11.5728 7.37806 11.0818 7.20323 10.565 7.26112C9.81811 7.3448 9.155 7.7607 8.73104 8.38272C8.4433 8.80487 8.3426 9.31725 8.2957 9.86212C8.24895 10.4054 8.24895 11.1016 8.24896 11.964V12.0359C8.24895 12.8983 8.24895 13.5945 8.2957 14.1378C8.3426 14.6826 8.4433 15.195 8.73104 15.6172C9.155 16.2392 9.81811 16.6551 10.565 16.7388C11.0818 16.7967 11.5728 16.6218 12.0443 16.39C12.5136 16.1593 13.0827 15.8091 13.7797 15.3801L13.8457 15.3395C14.5434 14.9101 15.1124 14.5599 15.5338 14.2425C15.9617 13.9203 16.3326 13.5644 16.5318 13.0877C16.8214 12.3943 16.8214 11.6056 16.5318 10.9122C16.3326 10.4355 15.9617 10.0796 15.5338 9.75734C15.1124 9.43995 14.5435 9.08982 13.8458 8.66045L13.7797 8.61981Z" fill="#2D264B"/>
</svg>
