<svg width="24" height="24" viewBox="0 0 24 24" fill="none" xmlns="http://www.w3.org/2000/svg">
<path d="M11.9989 13.7499C12.525 13.7499 13.031 13.6644 13.504 13.5066C15.3896 12.8771 16.7489 11.0973 16.7489 8.99993C16.7489 6.37658 14.6223 4.24993 11.9989 4.24993C11.9784 4.24993 11.958 4.25006 11.9375 4.25032C11.631 4.25421 11.3315 4.28712 11.0416 4.34644C8.87713 4.78934 7.2489 6.70449 7.2489 8.99994C7.2489 11.6233 9.37558 13.7499 11.9989 13.7499Z" fill="#2D264B"/>
<path fill-rule="evenodd" clip-rule="evenodd" d="M11.7138 1.03051C11.9038 1.02108 12.0941 1.02108 12.2841 1.03051C13.0174 1.06692 13.6926 1.28001 14.4452 1.62929C15.178 1.96931 16.0294 2.46089 17.1066 3.0828L17.1675 3.11801C18.2447 3.73991 19.0962 4.2315 19.757 4.69604C20.4358 5.17323 20.958 5.65139 21.3562 6.26829C21.4593 6.42809 21.5545 6.59292 21.6413 6.76215C21.9764 7.41546 22.1295 8.10672 22.2033 8.93318C22.2752 9.73774 22.2752 10.7209 22.2752 11.9647V12.0351C22.2752 13.2789 22.2752 14.2621 22.2033 15.0667C22.1295 15.8931 21.9764 16.5844 21.6413 17.2377C21.5545 17.407 21.4593 17.5718 21.3562 17.7316C20.8709 18.4834 20.1995 19.0312 19.2863 19.6197C18.707 19.9931 18.0009 20.4008 17.152 20.8908L17.1066 20.9171C16.0294 21.539 15.178 22.0306 14.4452 22.3706C13.6926 22.7199 13.0174 22.9329 12.2841 22.9694C12.0941 22.9788 11.9038 22.9788 11.7138 22.9694C10.9804 22.9329 10.3053 22.7199 9.55263 22.3706C8.8199 22.0306 7.96846 21.539 6.89128 20.9171L6.84648 20.8912C6.00557 20.4057 5.30476 20.0011 4.72872 19.6308C3.8067 19.038 3.12997 18.488 2.6417 17.7316C2.53855 17.5718 2.44339 17.407 2.35657 17.2377C2.02142 16.5844 1.86838 15.8931 1.79454 15.0667C1.72265 14.2621 1.72265 13.279 1.72266 12.0352V11.9647C1.72265 10.7209 1.72265 9.73775 1.79454 8.93318C1.86838 8.10672 2.02142 7.41546 2.35657 6.76215C2.44339 6.59292 2.53855 6.4281 2.6417 6.26829C3.03991 5.65139 3.56204 5.17323 4.24085 4.69604C4.90168 4.2315 5.75312 3.73993 6.83029 3.11803L6.8913 3.0828C7.96847 2.46089 8.8199 1.96931 9.55263 1.62929C10.3053 1.28001 10.9804 1.06692 11.7138 1.03051ZM12.2097 2.52867C12.0693 2.52169 11.9286 2.52169 11.7882 2.52867C11.3154 2.55214 10.8359 2.6874 10.184 2.98992C9.51911 3.29848 8.72519 3.75606 7.6108 4.39945C6.49641 5.04285 5.70317 5.50162 5.10348 5.92318C4.51555 6.33648 4.15869 6.68405 3.90195 7.08179C3.82571 7.1999 3.75537 7.32173 3.6912 7.44681C3.47512 7.86803 3.35255 8.35086 3.28858 9.06668C3.22335 9.7968 3.22266 10.7131 3.22266 11.9999C3.22266 13.2867 3.22335 14.2031 3.28858 14.9332C3.35255 15.649 3.47512 16.1318 3.6912 16.5531C3.75537 16.6781 3.82571 16.8 3.90195 16.9181C4.10676 17.2354 4.37433 17.5198 4.77198 17.8314C5.55972 16.2989 7.15612 15.2499 8.99894 15.2499H14.9989C16.8418 15.2499 18.4382 16.2989 19.2259 17.8314C19.6236 17.5197 19.8911 17.2353 20.0959 16.9181C20.1722 16.8 20.2425 16.6781 20.3067 16.5531C20.5228 16.1318 20.6453 15.649 20.7093 14.9332C20.7745 14.2031 20.7752 13.2867 20.7752 11.9999C20.7752 10.7131 20.7745 9.7968 20.7093 9.06668C20.6453 8.35086 20.5228 7.86803 20.3067 7.44681C20.2425 7.32173 20.1722 7.1999 20.0959 7.08179C19.8392 6.68405 19.4823 6.33648 18.8944 5.92318C18.2947 5.50162 17.5015 5.04285 16.3871 4.39945C15.2727 3.75606 14.4788 3.29848 13.8138 2.98992C13.1619 2.6874 12.6825 2.55214 12.2097 2.52867Z" fill="#2D264B"/>
</svg>
