<svg width="24" height="24" viewBox="0 0 24 24" fill="none" xmlns="http://www.w3.org/2000/svg">
<path fill-rule="evenodd" clip-rule="evenodd" d="M16.7033 3.25839C16.8459 2.8695 16.6462 2.43864 16.2573 2.29605C15.8684 2.15345 15.4375 2.35312 15.2949 2.74201L15.0527 3.40263C14.9061 3.80253 14.5254 4.06839 14.0995 4.06839C12.9092 4.06839 11.8818 4.9028 11.6377 6.06785L11.2917 7.71933C11.2331 7.70944 11.1748 7.69833 11.1166 7.68598C10.6984 7.59721 10.2833 7.41689 9.25798 6.96119L8.727 6.7252C8.02235 6.41202 7.25983 6.2502 6.48872 6.2502C3.13493 6.2502 0.55869 9.22063 1.03299 12.5407L1.26388 14.157L2.72016 19.254C3.14232 20.7315 4.49283 21.7502 6.02952 21.7502C7.20063 21.7502 8.29138 21.1547 8.92467 20.1696L9.29904 19.5872C10.5626 17.6218 13.4356 17.6218 14.6992 19.5872L14.9282 19.9435C15.6521 21.0695 16.8988 21.7502 18.2375 21.7502C20.1953 21.7502 21.8552 20.3106 22.1321 18.3724L22.9652 12.5407C23.4395 9.22063 20.8633 6.2502 17.5095 6.2502C16.7384 6.2502 15.9758 6.41202 15.2712 6.7252L14.7402 6.96119C13.7149 7.41689 13.2998 7.59721 12.8816 7.68598C12.8641 7.6897 12.8465 7.69331 12.829 7.69681L13.1058 6.37546C13.2043 5.90519 13.619 5.56839 14.0995 5.56839C15.1547 5.56839 16.0978 4.90973 16.461 3.91901L16.7033 3.25839ZM17.9991 11.0002C17.9991 11.5525 17.5514 12.0002 16.9991 12.0002C16.4469 12.0002 15.9991 11.5525 15.9991 11.0002C15.9991 10.4479 16.4469 10.0002 16.9991 10.0002C17.5514 10.0002 17.9991 10.4479 17.9991 11.0002ZM15.9991 13.0002C15.9991 13.5525 15.5514 14.0002 14.9991 14.0002C14.4469 14.0002 13.9991 13.5525 13.9991 13.0002C13.9991 12.4479 14.4469 12.0002 14.9991 12.0002C15.5514 12.0002 15.9991 12.4479 15.9991 13.0002ZM18.9991 14.0002C19.5514 14.0002 19.9991 13.5525 19.9991 13.0002C19.9991 12.4479 19.5514 12.0002 18.9991 12.0002C18.4469 12.0002 17.9991 12.4479 17.9991 13.0002C17.9991 13.5525 18.4469 14.0002 18.9991 14.0002ZM17.9991 15.0002C17.9991 15.5525 17.5514 16.0002 16.9991 16.0002C16.4469 16.0002 15.9991 15.5525 15.9991 15.0002C15.9991 14.4479 16.4469 14.0002 16.9991 14.0002C17.5514 14.0002 17.9991 14.4479 17.9991 15.0002ZM7.74908 11.0002C7.74908 10.586 7.4133 10.2502 6.99908 10.2502C6.58487 10.2502 6.24908 10.586 6.24908 11.0002V12.2502H4.99908C4.58487 12.2502 4.24908 12.586 4.24908 13.0002C4.24908 13.4144 4.58487 13.7502 4.99908 13.7502H6.24908V15.0002C6.24908 15.4144 6.58487 15.7502 6.99908 15.7502C7.4133 15.7502 7.74908 15.4144 7.74908 15.0002V13.7502H8.99908C9.4133 13.7502 9.74908 13.4144 9.74908 13.0002C9.74908 12.586 9.4133 12.2502 8.99908 12.2502H7.74908V11.0002Z" fill="#2D264B"/>
</svg>
