<svg width="24" height="24" viewBox="0 0 24 24" fill="none" xmlns="http://www.w3.org/2000/svg">
<path d="M13.7221 2.52876C13.4617 2.26841 13.0396 2.26841 12.7793 2.52876C12.5189 2.78911 12.5189 3.21122 12.7793 3.47157L13.6412 4.3335L11.8529 4.33348C10.1329 4.33327 9.10427 4.33314 8.24958 4.61084C6.52443 5.17138 5.17189 6.52392 4.61136 8.24907C4.33365 9.10376 4.33378 10.1324 4.334 11.8524V12.148C4.33378 13.868 4.33365 14.8966 4.61136 15.7513C4.72513 16.1014 5.10123 16.2931 5.4514 16.1793C5.80157 16.0655 5.99321 15.6894 5.87943 15.3392C5.67557 14.7118 5.66734 13.9133 5.66734 12.0002C5.66734 10.087 5.67557 9.28852 5.87943 8.66109C6.30807 7.34186 7.34237 6.30756 8.6616 5.87892C9.28903 5.67505 10.0875 5.66683 12.0007 5.66683H13.4093L12.5739 6.36302C12.291 6.59872 12.2528 7.0191 12.4885 7.30195C12.7242 7.5848 13.1446 7.62302 13.4275 7.38731L14.8362 6.21333C15.2022 5.90835 15.4029 5.48067 15.4322 5.04485C15.4631 4.58514 15.3036 4.11024 14.9478 3.75445L13.7221 2.52876Z" fill="#2D264B"/>
<path d="M20.3925 7.8019C20.283 7.45037 19.9092 7.25416 19.5577 7.36366C19.2062 7.47315 19.01 7.84689 19.1195 8.19842C19.3264 8.86279 19.334 9.7066 19.334 11.6982C19.334 13.6898 19.3264 14.5336 19.1195 15.1979C18.6857 16.5905 17.6438 17.6688 16.3318 18.1135C15.7089 18.3246 14.9158 18.3335 13.0007 18.3335H11.6102L12.4721 17.4716C12.7324 17.2112 12.7324 16.7891 12.4721 16.5288C12.2117 16.2684 11.7896 16.2684 11.5293 16.5288L10.3036 17.7545C9.94779 18.1102 9.7883 18.5851 9.81918 19.0448C9.84846 19.4807 10.0491 19.9083 10.4151 20.2133L11.8239 21.3873C12.1067 21.623 12.5271 21.5848 12.7628 21.302C12.9985 21.0191 12.9603 20.5987 12.6775 20.363L11.842 19.6668L13.1524 19.6668C14.8685 19.6671 15.9013 19.6672 16.7598 19.3763C18.4921 18.7891 19.837 17.3776 20.3925 15.5945C20.6677 14.711 20.6675 13.6464 20.6674 11.8433V11.553C20.6675 9.74996 20.6677 8.68539 20.3925 7.8019Z" fill="#2D264B"/>
</svg>
