<svg width="24" height="24" viewBox="0 0 24 24" fill="none" xmlns="http://www.w3.org/2000/svg">
<path d="M15.8002 2.26404C13.9791 -0.421354 10.0227 -0.421346 8.20155 2.26406L2.97292 9.97413C1.83631 11.6502 1.77613 13.8394 2.80203 15.5799C4.85029 19.055 9.93544 19.0178 11.8767 15.4591C11.9303 15.3608 12.0715 15.3608 12.1251 15.4591C14.0664 19.0178 19.1515 19.055 21.1998 15.5799C22.2257 13.8394 22.1655 11.6502 21.0289 9.97412L15.8002 2.26404Z" fill="#2D264B"/>
<path d="M12.7509 18.9979C12.7509 18.5837 12.4151 18.2479 12.0009 18.2479C11.5867 18.2479 11.2509 18.5837 11.2509 18.9979V20.9979C11.2509 21.4121 11.5867 21.7479 12.0009 21.7479C12.4151 21.7479 12.7509 21.4121 12.7509 20.9979V18.9979Z" fill="#2D264B"/>
<path d="M9.00092 20.2479C9.41513 20.2479 9.75092 20.5837 9.75092 20.9979L9.75092 22.9979C9.75092 23.4121 9.41513 23.7479 9.00092 23.7479C8.5867 23.7479 8.25092 23.4121 8.25092 22.9979L8.25092 20.9979C8.25092 20.5837 8.5867 20.2479 9.00092 20.2479Z" fill="#2D264B"/>
<path d="M15.7509 20.9979C15.7509 20.5837 15.4151 20.2479 15.0009 20.2479C14.5867 20.2479 14.2509 20.5837 14.2509 20.9979V22.9979C14.2509 23.4121 14.5867 23.7479 15.0009 23.7479C15.4151 23.7479 15.7509 23.4121 15.7509 22.9979V20.9979Z" fill="#2D264B"/>
</svg>
