<svg width="24" height="24" viewBox="0 0 24 24" fill="none" xmlns="http://www.w3.org/2000/svg">
<path d="M22.4689 7.36431C23.08 4.17771 20.2824 1.38009 17.0958 1.99123L7.94673 3.74587C5.95789 4.1273 4.36735 5.63275 3.86202 7.58892C2.85311 11.4945 6.47515 15.0639 10.3642 13.9203C10.4716 13.8887 10.5714 13.9885 10.5398 14.0959C9.39617 17.985 12.9656 21.607 16.8712 20.5981C18.8274 20.0928 20.3328 18.5022 20.7142 16.5134L22.4689 7.36431Z" fill="#2D264B"/>
<path d="M4.94454 16.3336C5.23744 16.0407 5.23744 15.5658 4.94454 15.2729C4.65165 14.98 4.17678 14.98 3.88388 15.2729L2.46967 16.6872C2.17678 16.98 2.17678 17.4549 2.46967 17.7478C2.76256 18.0407 3.23744 18.0407 3.53033 17.7478L4.94454 16.3336Z" fill="#2D264B"/>
<path d="M8.48008 15.98C8.77297 16.2729 8.77297 16.7478 8.48008 17.0407L7.06586 18.4549C6.77297 18.7478 6.2981 18.7478 6.0052 18.4549C5.71231 18.162 5.71231 17.6872 6.0052 17.3943L7.41942 15.98C7.71231 15.6872 8.18718 15.6872 8.48008 15.98Z" fill="#2D264B"/>
<path d="M9.18718 20.5762C9.48008 20.2833 9.48008 19.8085 9.18718 19.5156C8.89429 19.2227 8.41942 19.2227 8.12652 19.5156L6.71231 20.9298C6.41942 21.2227 6.41942 21.6976 6.71231 21.9905C7.0052 22.2833 7.48008 22.2833 7.77297 21.9905L9.18718 20.5762Z" fill="#2D264B"/>
</svg>
