<svg width="24" height="24" viewBox="0 0 24 24" fill="none" xmlns="http://www.w3.org/2000/svg">
<path d="M11.4064 9.20819C11.5985 8.59727 12.4033 8.59727 12.5955 9.20819C12.8741 10.094 13.6833 10.7163 14.6209 10.7163C14.9109 10.7163 15.1274 10.8947 15.2154 11.1745C15.304 11.456 15.2316 11.7518 14.9803 11.9404C14.237 12.4983 13.9372 13.4739 14.2147 14.3561C14.3171 14.6818 14.1945 14.9606 13.9796 15.122C13.7681 15.2807 13.5033 15.304 13.2607 15.122C12.5112 14.5594 11.4906 14.5594 10.7411 15.122C10.4985 15.304 10.2337 15.2807 10.0223 15.122C9.80731 14.9606 9.68471 14.6818 9.78715 14.3561C10.0646 13.4739 9.76488 12.4983 9.02154 11.9404C8.7702 11.7518 8.69787 11.456 8.78641 11.1745C8.87442 10.8947 9.09089 10.7163 9.38095 10.7163C10.3185 10.7163 11.1278 10.094 11.4064 9.20819Z" fill="#2D264B"/>
<path fill-rule="evenodd" clip-rule="evenodd" d="M6.77215 4.04167C6.77215 2.49987 8.02202 1.25 9.56381 1.25H14.7298C16.1105 1.25 17.2298 2.36929 17.2298 3.75C17.2298 4.30228 17.6775 4.75 18.2298 4.75H18.8192C20.404 4.75 21.7979 5.97999 21.7333 7.66561C21.6506 9.82667 21.2308 13.2931 19.5475 16.3608C19.0912 17.1923 18.4818 18.0092 17.823 18.7703L17.7734 18.8276C16.8258 19.9226 16.0356 20.8356 15.1861 21.4579C14.2725 22.1273 13.2973 22.4607 12.001 22.4607C10.7047 22.4607 9.72951 22.1273 8.81582 21.4579C7.96635 20.8356 7.17619 19.9226 6.22852 18.8276L6.17893 18.7703C5.52016 18.0092 4.91077 17.1923 4.45448 16.3608C2.82533 13.3918 2.37867 10.2575 2.27715 8.24648C2.19164 6.55273 3.59556 5.33333 5.17162 5.33333H5.48048C6.19385 5.33333 6.77215 4.75503 6.77215 4.04167ZM14.0263 8.75812C13.3938 6.74729 10.608 6.74729 9.97549 8.75812C9.88532 9.0448 9.63685 9.21631 9.38095 9.21631C7.27189 9.21631 6.50882 11.93 8.12114 13.1401C8.34332 13.3068 8.44758 13.6157 8.35626 13.906C8.04638 14.8912 8.44384 15.8128 9.12188 16.3217C9.80343 16.8332 10.8046 16.9498 11.6415 16.3217C11.8575 16.1595 12.1443 16.1595 12.3603 16.3217C13.1972 16.9498 14.1984 16.8332 14.88 16.3217C15.558 15.8128 15.9555 14.8912 15.6456 13.906C15.5542 13.6157 15.6585 13.3068 15.8807 13.1401C17.493 11.93 16.7299 9.21631 14.6209 9.21631C14.365 9.21631 14.1165 9.0448 14.0263 8.75812Z" fill="#2D264B"/>
</svg>
