<svg width="24" height="24" viewBox="0 0 24 24" fill="none" xmlns="http://www.w3.org/2000/svg">
<path d="M9.56381 1.25C8.02202 1.25 6.77215 2.49987 6.77215 4.04167C6.77215 4.75503 6.19385 5.33333 5.48048 5.33333H5.17162C3.59556 5.33333 2.19164 6.55273 2.27715 8.24648C2.37867 10.2575 2.82533 13.3918 4.45448 16.3608C4.91077 17.1923 5.52016 18.0092 6.17893 18.7703L6.22852 18.8276C7.17619 19.9226 7.96635 20.8356 8.81582 21.4579C9.72951 22.1273 10.7047 22.4607 12.001 22.4607C13.2973 22.4607 14.2725 22.1273 15.1861 21.4579C16.0356 20.8356 16.8258 19.9226 17.7734 18.8276L17.823 18.7703C18.4818 18.0092 19.0912 17.1923 19.5475 16.3608C21.2308 13.2931 21.6506 9.82667 21.7333 7.66561C21.7979 5.97999 20.404 4.75 18.8192 4.75H18.2298C17.6775 4.75 17.2298 4.30228 17.2298 3.75C17.2298 2.36929 16.1105 1.25 14.7298 1.25H9.56381Z" fill="#2D264B"/>
</svg>
