<svg width="24" height="24" viewBox="0 0 24 24" fill="none" xmlns="http://www.w3.org/2000/svg">
<path fill-rule="evenodd" clip-rule="evenodd" d="M6.77215 4.04167C6.77215 2.49987 8.02202 1.25 9.56381 1.25H14.7298C16.1105 1.25 17.2298 2.36929 17.2298 3.75C17.2298 4.30228 17.6775 4.75 18.2298 4.75H18.8192C20.404 4.75 21.7979 5.97999 21.7333 7.66561C21.6506 9.82667 21.2308 13.2931 19.5475 16.3608C19.0912 17.1923 18.4818 18.0092 17.823 18.7703L17.7734 18.8276C16.8258 19.9226 16.0356 20.8356 15.1861 21.4579C14.2725 22.1273 13.2973 22.4607 12.001 22.4607C10.7047 22.4607 9.72951 22.1273 8.81582 21.4579C7.96635 20.8356 7.17619 19.9226 6.22852 18.8276L6.17893 18.7703C5.52016 18.0092 4.91077 17.1923 4.45448 16.3608C2.82533 13.3918 2.37867 10.2575 2.27715 8.24648C2.19164 6.55273 3.59556 5.33333 5.17162 5.33333H5.48048C6.19385 5.33333 6.77215 4.75503 6.77215 4.04167ZM14.8953 10.6516C15.1882 10.3588 15.1882 9.88388 14.8953 9.59099C14.6024 9.2981 14.1275 9.2981 13.8346 9.59099L12.2436 11.182L10.6526 9.59099C10.3598 9.2981 9.88488 9.2981 9.59198 9.59099C9.29909 9.88388 9.29909 10.3588 9.59198 10.6517L11.183 12.2426L9.59198 13.8336C9.29909 14.1265 9.29909 14.6014 9.59198 14.8943C9.88488 15.1872 10.3598 15.1872 10.6526 14.8943L12.2436 13.3033L13.8346 14.8943C14.1275 15.1872 14.6024 15.1872 14.8953 14.8943C15.1882 14.6014 15.1882 14.1265 14.8953 13.8336L13.3043 12.2426L14.8953 10.6516Z" fill="#2D264B"/>
</svg>
