<svg width="24" height="24" viewBox="0 0 24 24" fill="none" xmlns="http://www.w3.org/2000/svg">
<path fill-rule="evenodd" clip-rule="evenodd" d="M6.77215 4.04167C6.77215 2.49987 8.02202 1.25 9.56381 1.25H14.7298C16.1105 1.25 17.2298 2.36929 17.2298 3.75C17.2298 4.30228 17.6775 4.75 18.2298 4.75H18.8192C20.404 4.75 21.7979 5.97999 21.7333 7.66561C21.6506 9.82667 21.2308 13.2931 19.5475 16.3608C19.0912 17.1923 18.4818 18.0092 17.823 18.7703L17.7734 18.8276C16.8258 19.9226 16.0356 20.8356 15.1861 21.4579C14.2725 22.1273 13.2973 22.4607 12.001 22.4607C10.7047 22.4607 9.72951 22.1273 8.81582 21.4579C7.96635 20.8356 7.17619 19.9226 6.22852 18.8276L6.17893 18.7703C5.52016 18.0092 4.91077 17.1923 4.45448 16.3608C2.82533 13.3918 2.37867 10.2575 2.27715 8.24648C2.19164 6.55273 3.59556 5.33333 5.17162 5.33333H5.48048C6.19385 5.33333 6.77215 4.75503 6.77215 4.04167ZM12.7509 9C12.7509 8.58579 12.4151 8.25 12.0009 8.25C11.5867 8.25 11.2509 8.58579 11.2509 9V11.25H9.00092C8.5867 11.25 8.25092 11.5858 8.25092 12C8.25092 12.4142 8.5867 12.75 9.00092 12.75H11.2509V15C11.2509 15.4142 11.5867 15.75 12.0009 15.75C12.4151 15.75 12.7509 15.4142 12.7509 15V12.75H15.0009C15.4151 12.75 15.7509 12.4142 15.7509 12C15.7509 11.5858 15.4151 11.25 15.0009 11.25H12.7509V9Z" fill="#2D264B"/>
</svg>
