<svg width="24" height="24" viewBox="0 0 24 24" fill="none" xmlns="http://www.w3.org/2000/svg">
<path fill-rule="evenodd" clip-rule="evenodd" d="M7.83579 4.27559C9.14656 0.241469 14.8538 0.241469 16.1645 4.27559C16.5499 5.46167 17.6552 6.26471 18.9023 6.26471C23.144 6.26471 24.9077 11.6926 21.476 14.1858C20.4671 14.9188 20.0449 16.2182 20.4303 17.4043C21.7411 21.4384 17.1238 24.793 13.6922 22.2998C12.6833 21.5667 11.3171 21.5667 10.3081 22.2998C6.87649 24.793 2.25926 21.4384 3.57003 17.4043C3.95541 16.2182 3.53323 14.9188 2.52429 14.1858C-0.907344 11.6926 0.856281 6.26471 5.09801 6.26471C6.34513 6.26471 7.45041 5.46167 7.83579 4.27559ZM14.7105 7.64541C14.5776 7.25309 14.1518 7.04279 13.7595 7.17568C13.3672 7.30857 13.1569 7.73434 13.2898 8.12666C13.7209 9.39931 14.9435 10.2337 16.2926 10.2337C16.7068 10.2337 17.0426 9.89787 17.0426 9.48366C17.0426 9.06945 16.7068 8.73366 16.2926 8.73366C15.5531 8.73366 14.9248 8.27803 14.7105 7.64541Z" fill="#2D264B"/>
</svg>
