<svg width="24" height="24" viewBox="0 0 24 24" fill="none" xmlns="http://www.w3.org/2000/svg">
<path d="M6.1849 3.97712L9.16159 13.118C9.16893 13.1406 9.17725 13.1626 9.18646 13.1839V15.2C9.18646 15.6142 9.52225 15.95 9.93646 15.95C10.3507 15.95 10.6865 15.6142 10.6865 15.2V3.5817C10.9819 3.45057 11.3031 3.37548 11.642 3.32991C12.2368 3.24995 12.986 3.24997 13.8845 3.25L18.4921 3.25C21.3609 3.25 23.6865 5.57564 23.6865 8.44445C23.6865 9.27618 23.2095 10.0342 22.4597 10.3941L21.9723 10.6281C20.8213 11.1806 20.8213 12.8194 21.9723 13.3719L22.4597 13.6059C23.2095 13.9658 23.6865 14.7238 23.6865 15.5556C23.6865 18.4244 21.3609 20.75 18.4921 20.75H9.93817C10.3516 20.7491 10.6865 20.4136 10.6865 20V18.8C10.6865 18.3858 10.3507 18.05 9.93646 18.05C9.52225 18.05 9.18646 18.3858 9.18646 18.8V20C9.18646 20.4134 9.52094 20.7487 9.93404 20.75L6.82015 20.75C5.07699 20.75 3.4677 19.8153 2.60402 18.3011L2.41667 17.9726C2.33511 17.8296 2.27225 17.6767 2.22964 17.5177C2.03829 16.8036 2.27343 16.043 2.83442 15.5615L3.35938 15.1109C4.32819 14.2793 3.90401 12.6963 2.64921 12.4605L2.1179 12.3607C1.30047 12.2071 0.643554 11.5984 0.428286 10.795C-0.314217 8.02393 1.33025 5.17562 4.10131 4.43312L4.13979 4.42281C4.8109 4.24297 5.37088 4.09291 5.83614 4.01936C5.95345 4.00082 6.06962 3.98623 6.1849 3.97712Z" fill="#2D264B"/>
</svg>
