<svg width="24" height="24" viewBox="0 0 24 24" fill="none" xmlns="http://www.w3.org/2000/svg">
<path d="M18.4573 6.11987C18.29 5.9038 18.0961 5.70986 17.88 5.54264C17.3872 5.16128 16.8146 5.00571 16.1677 4.93507C15.5457 4.86714 14.7679 4.87063 13.8162 4.87489L11.2893 4.88617C10.8751 4.88801 10.5408 5.22529 10.5427 5.6395C10.5445 6.05371 10.8818 6.388 11.296 6.38615L13.7782 6.37508C14.7855 6.37058 15.4777 6.36863 16.0049 6.42621C16.1762 6.44492 16.3194 6.46903 16.4411 6.49818L5.81259 17.1266C5.5197 17.4195 5.5197 17.8944 5.81259 18.1873C6.10548 18.4802 6.58036 18.4802 6.87325 18.1873L17.5017 7.55884C17.5309 7.68044 17.555 7.82364 17.5737 7.99499C17.6313 8.52223 17.6293 9.21437 17.6248 10.2217L17.6137 12.7039C17.6119 13.1181 17.9462 13.4554 18.3604 13.4572C18.7746 13.4591 19.1119 13.1248 19.1137 12.7106L19.125 10.1837C19.1293 9.23199 19.1327 8.45417 19.0648 7.83215C18.9942 7.18532 18.8386 6.61265 18.4573 6.11987Z" fill="#2D264B"/>
</svg>
