<svg width="24" height="24" viewBox="0 0 24 24" fill="none" xmlns="http://www.w3.org/2000/svg">
<path fill-rule="evenodd" clip-rule="evenodd" d="M11.7138 1.03051C11.9038 1.02108 12.0941 1.02108 12.2841 1.03051C13.0174 1.06692 13.6926 1.28001 14.4452 1.62929C15.178 1.96931 16.0294 2.46087 17.1065 3.08276L17.1676 3.11802C18.2447 3.73992 19.0962 4.2315 19.757 4.69604C20.4358 5.17323 20.958 5.65139 21.3562 6.26829C21.4593 6.42809 21.5545 6.59292 21.6413 6.76215C21.9764 7.41546 22.1295 8.10672 22.2033 8.93318C22.2752 9.73774 22.2752 10.7209 22.2752 11.9647V12.0351C22.2752 13.2789 22.2752 14.2621 22.2033 15.0667C22.1295 15.8931 21.9764 16.5844 21.6413 17.2377C21.5545 17.4069 21.4593 17.5718 21.3562 17.7316C20.958 18.3485 20.4358 18.8266 19.757 19.3038C19.0962 19.7684 18.2447 20.26 17.1676 20.8819L17.1066 20.9171C16.0294 21.539 15.178 22.0306 14.4452 22.3706C13.6926 22.7199 13.0174 22.9329 12.2841 22.9694C12.0941 22.9788 11.9038 22.9788 11.7138 22.9694C10.9804 22.9329 10.3053 22.7199 9.55263 22.3706C8.81991 22.0306 7.9685 21.539 6.89135 20.9171L6.83024 20.8818C5.75316 20.26 4.90164 19.7683 4.24085 19.3038C3.56204 18.8266 3.03991 18.3485 2.6417 17.7316C2.53855 17.5718 2.44339 17.407 2.35657 17.2377C2.02143 16.5844 1.86838 15.8932 1.79454 15.0667C1.72265 14.2621 1.72265 13.279 1.72266 12.0352V11.9647C1.72265 10.7209 1.72264 9.73775 1.79454 8.93318C1.86838 8.10672 2.02142 7.41547 2.35657 6.76215C2.44339 6.59292 2.53855 6.4281 2.6417 6.2683C3.03991 5.65139 3.56204 5.17323 4.24085 4.69604C4.90168 4.2315 5.75312 3.73993 6.83029 3.11803L6.89128 3.08282C7.96845 2.4609 8.8199 1.96931 9.55262 1.62929C10.3053 1.28001 10.9804 1.06692 11.7138 1.03051ZM12.749 7.99994C12.749 7.58573 12.4132 7.24994 11.999 7.24994C11.5847 7.24994 11.249 7.58573 11.249 7.99994V15.9999C11.249 16.4142 11.5847 16.7499 11.999 16.7499C12.4132 16.7499 12.749 16.4142 12.749 15.9999V7.99994ZM9.74896 8.99994C9.74896 8.58573 9.41318 8.24994 8.99896 8.24994C8.58475 8.24994 8.24896 8.58573 8.24896 8.99994L8.24896 14.9999C8.24896 15.4142 8.58475 15.7499 8.99896 15.7499C9.41318 15.7499 9.74896 15.4142 9.74896 14.9999V8.99994ZM15.749 8.99994C15.749 8.58573 15.4132 8.24994 14.999 8.24994C14.5847 8.24994 14.249 8.58573 14.249 8.99994V14.9999C14.249 15.4142 14.5847 15.7499 14.999 15.7499C15.4132 15.7499 15.749 15.4142 15.749 14.9999V8.99994ZM6.74896 10.9999C6.74896 10.5857 6.41318 10.2499 5.99896 10.2499C5.58475 10.2499 5.24896 10.5857 5.24896 10.9999L5.24896 12.9999C5.24896 13.4142 5.58475 13.7499 5.99896 13.7499C6.41318 13.7499 6.74896 13.4142 6.74896 12.9999V10.9999ZM18.749 10.9999C18.749 10.5857 18.4132 10.2499 17.999 10.2499C17.5847 10.2499 17.249 10.5857 17.249 10.9999V12.9999C17.249 13.4142 17.5847 13.7499 17.999 13.7499C18.4132 13.7499 18.749 13.4142 18.749 12.9999V10.9999Z" fill="#2D264B"/>
</svg>
