<svg width="24" height="24" viewBox="0 0 24 24" fill="none" xmlns="http://www.w3.org/2000/svg">
<path d="M14.7695 3.3311C13.9345 3.08771 13.1322 3.42098 12.3627 3.90644C11.5898 4.39401 10.6518 5.16713 9.47816 6.13442L8.43797 6.99171C8.23851 7.15611 8.15785 7.22231 8.07791 7.28188C7.40104 7.78627 6.5893 8.07767 5.74617 8.11893C5.6466 8.12381 5.54225 8.12401 5.28377 8.12401L5.2422 8.12401C5.01938 8.12394 4.8477 8.12389 4.69421 8.14107C3.41758 8.28392 2.40992 9.29157 2.26707 10.5682C2.2499 10.7217 2.24994 10.8934 2.25001 11.1162V12.3461C2.24994 12.5689 2.2499 12.7406 2.26707 12.8941C2.40992 14.1707 3.41758 15.1784 4.69421 15.3212C4.84771 15.3384 5.01939 15.3384 5.24221 15.3383L5.28377 15.3383C5.54225 15.3383 5.6466 15.3385 5.74617 15.3434C6.5893 15.3846 7.40104 15.676 8.07791 16.1804C8.15785 16.24 8.23851 16.3062 8.43797 16.4706L9.47814 17.3279C10.6518 18.2952 11.5898 19.0683 12.3627 19.5559C13.1322 20.0413 13.9345 20.3746 14.7695 20.1312C15.0467 20.0504 15.3094 19.9265 15.548 19.764C16.2669 19.2745 16.5199 18.4434 16.6347 17.5408C16.75 16.6343 16.75 15.4187 16.75 13.8978V9.56448C16.75 8.04362 16.75 6.82804 16.6347 5.92153C16.5199 5.01894 16.2669 4.18786 15.548 3.69827C15.3094 3.53578 15.0467 3.41187 14.7695 3.3311Z" fill="#2D264B"/>
<path d="M20.5303 7.20083C20.2375 6.90793 19.7626 6.90793 19.4697 7.20083C19.1768 7.49372 19.1768 7.96859 19.4697 8.26149L19.8697 8.66149C19.9314 8.72318 19.9566 8.74844 19.9769 8.7693C21.5796 10.4186 21.5796 13.0437 19.9769 14.693C19.9566 14.7139 19.9314 14.7391 19.8697 14.8008L19.4697 15.2008C19.1768 15.4937 19.1768 15.9686 19.4697 16.2615C19.7626 16.5544 20.2375 16.5544 20.5303 16.2615L20.9357 15.8561C20.9904 15.8015 21.0239 15.7679 21.0526 15.7384C23.2211 13.5069 23.2211 9.95539 21.0526 7.72393C21.0239 7.69438 20.9905 7.66098 20.9357 7.60614L20.5303 7.20083Z" fill="#2D264B"/>
</svg>
