<svg width="24" height="24" viewBox="0 0 24 24" fill="none" xmlns="http://www.w3.org/2000/svg">
<path d="M17.7695 3.3311C16.9345 3.08771 16.1322 3.42098 15.3627 3.90644C14.5898 4.39401 13.6518 5.16713 12.4782 6.13442L11.438 6.99171C11.2385 7.15611 11.1578 7.22231 11.0779 7.28188C10.401 7.78627 9.5893 8.07767 8.74617 8.11893C8.6466 8.12381 8.54225 8.12401 8.28377 8.12401L8.2422 8.12401C8.01938 8.12394 7.8477 8.12389 7.69421 8.14107C6.41758 8.28392 5.40992 9.29157 5.26707 10.5682C5.2499 10.7217 5.24994 10.8934 5.25001 11.1162V12.3461C5.24994 12.5689 5.2499 12.7406 5.26707 12.8941C5.40992 14.1707 6.41758 15.1784 7.69421 15.3212C7.84771 15.3384 8.01939 15.3384 8.24221 15.3383L8.28377 15.3383C8.54225 15.3383 8.6466 15.3385 8.74617 15.3434C9.5893 15.3846 10.401 15.676 11.0779 16.1804C11.1579 16.24 11.2385 16.3062 11.438 16.4706L12.4781 17.3279C13.6518 18.2952 14.5898 19.0683 15.3627 19.5559C16.1322 20.0413 16.9345 20.3746 17.7695 20.1312C18.0467 20.0504 18.3094 19.9265 18.548 19.764C19.2669 19.2745 19.5199 18.4434 19.6347 17.5408C19.75 16.6343 19.75 15.4187 19.75 13.8978V9.56448C19.75 8.04362 19.75 6.82804 19.6347 5.92153C19.5199 5.01894 19.2669 4.18786 18.548 3.69827C18.3094 3.53578 18.0467 3.41187 17.7695 3.3311Z" fill="#2D264B"/>
</svg>
