<svg width="24" height="24" viewBox="0 0 24 24" fill="none" xmlns="http://www.w3.org/2000/svg">
<path d="M16.9556 0.0576514C14.5425 0.490143 12.5596 2.38445 12.0617 4.73293C11.9546 5.23793 11.9194 6.19995 11.9181 8.66392L11.9165 11.9262L8.65174 11.9279C4.95803 11.9299 4.50333 11.9854 3.29435 12.5823C1.90195 13.2698 0.760327 14.5928 0.262321 16.0961C0.0453264 16.7511 0.00192792 17.0598 6.23566e-05 17.9603C-0.0018032 18.8743 0.0371768 19.1523 0.254367 19.7755C0.599299 20.7653 0.94109 21.3495 1.57548 22.0343C2.27261 22.7867 3.02737 23.2766 4.05716 23.6451L4.89608 23.9453L14.448 23.9726L24 24L23.9707 14.4555C23.9433 5.51128 23.9302 4.87707 23.7617 4.37138C23.0751 2.31106 21.543 0.786941 19.5782 0.209828C18.9056 0.0123221 17.6237 -0.062049 16.9556 0.0576514Z" fill="#3F71B7"/>
</svg>