<svg width="160" height="48" viewBox="0 0 160 48" fill="none" xmlns="http://www.w3.org/2000/svg">
<path d="M20.6531 9.75582C18.8551 10.0779 17.3777 11.4884 17.0067 13.2372C16.9268 13.6132 16.9007 14.3296 16.8997 16.1643L16.8985 18.5935L14.4659 18.5948C11.7137 18.5962 11.3749 18.6376 10.4741 19.0821C9.43667 19.594 8.58605 20.5791 8.21499 21.6985C8.0533 22.1862 8.02097 22.4161 8.01958 23.0867C8.01819 23.7672 8.04723 23.9743 8.20906 24.4383C8.46607 25.1754 8.72073 25.6104 9.19342 26.1202C9.71285 26.6805 10.2752 27.0453 11.0425 27.3197L11.6676 27.5433L18.7847 27.5636L25.9019 27.584L25.8801 20.4768C25.8597 13.8168 25.8499 13.3445 25.7243 12.9679C25.2127 11.4338 24.0711 10.2989 22.6072 9.86913C22.106 9.72207 21.1509 9.66669 20.6531 9.75582Z" fill="#E02828"/>
<path d="M27.6529 23.0867V27.5798H32.1521H36.6514V23.0867V18.5935H32.1521H27.6529V23.0867Z" fill="#3F71B7"/>
<path d="M16.8985 33.8264V38.3195H21.3978H25.897V33.8264V29.3332H21.3978H16.8985V33.8264Z" fill="#3F71B7"/>
<path d="M114.551 23.6438V33.2877H116.27H117.989V23.6438V14H116.27H114.551V23.6438Z" fill="black"/>
<path d="M141.254 23.6438V33.2877H147.326H153.398V31.7169V30.1461H149.045H144.692V27.2968V24.4475H147.875H151.057V22.9863V21.5251H147.875H144.692V19.2968V17.0685H149.118H153.544V15.5342V14H147.399H141.254V23.6438Z" fill="black"/>
<path d="M123.33 23.6438V33.2877H124.975H126.621L126.64 27.3062L126.658 21.3246L131.239 27.2879L135.819 33.2511L136.598 33.2719L137.376 33.2926V23.6463V14H135.694H134.012L133.993 19.6559L133.974 25.3117L129.548 19.6576L125.122 14.0034L124.226 14.0018L123.33 14V23.6438Z" fill="black"/>
<path d="M98.8945 23.6438V33.2877H104.967H111.039V31.7169V30.1461H106.723H102.406V22.0731V14H100.65H98.8945V23.6438Z" fill="black"/>
<path d="M82.0679 23.6438V33.2877H83.7872H85.5064V28.8676V24.4475H89.201H92.8955V22.9863V21.5251H89.201H85.5064V19.2968V17.0685H90.8104H96.1145V15.5342V14H89.0912H82.0679V23.6438Z" fill="black"/>
<path d="M61.0953 15.3333C61.1443 16.7552 61.2361 17.3557 61.5458 18.2795C62.4352 20.9315 64.597 23.0489 67.2753 23.8912C67.6093 23.9963 67.9468 24.0822 68.0252 24.0822C68.1649 24.0822 68.1677 24.1715 68.1677 28.6849V33.2877H69.8869H71.6062V28.6849V24.0822H71.7597C71.8441 24.0822 72.2721 23.9631 72.7107 23.8176C75.1945 22.9937 77.2732 20.9692 78.1495 18.5209C78.5405 17.4285 78.6333 16.8775 78.6804 15.3699L78.7231 14H76.957H75.191L75.1899 15.1142C75.1884 16.6585 75.0111 17.3473 74.3472 18.3878C73.3791 19.9052 71.7309 20.7945 69.8869 20.7945C68.3814 20.7945 67.2346 20.3135 66.1542 19.2289C65.4555 18.5274 65.1129 17.9812 64.7989 17.0685C64.6613 16.6686 64.63 16.3889 64.601 15.2968L64.5666 14H62.8081H61.0495L61.0953 15.3333Z" fill="black"/>
<path d="M49 23.6438V33.2877H55.0722H61.1444V31.7169V30.1461H56.828H52.5116V22.0731V14H50.7558H49V23.6438Z" fill="black"/>
</svg>
